<svg width="33" height="33" viewBox="0 0 33 33" fill="none" xmlns="http://www.w3.org/2000/svg">
<path d="M31.02 8.25H23.76V7.5625C23.76 5.5568 22.9951 3.63325 21.6336 2.21501C20.2721 0.796761 18.4255 0 16.5 0C14.5745 0 12.7279 0.796761 11.3664 2.21501C10.0049 3.63325 9.24 5.5568 9.24 7.5625V8.25H1.98C1.45487 8.25 0.951251 8.4673 0.579929 8.85409C0.208607 9.24089 0 9.76549 0 10.3125V30.9375C0 31.4845 0.208607 32.0091 0.579929 32.3959C0.951251 32.7827 1.45487 33 1.98 33H31.02C31.5451 33 32.0487 32.7827 32.4201 32.3959C32.7914 32.0091 33 31.4845 33 30.9375V10.3125C33 9.76549 32.7914 9.24089 32.4201 8.85409C32.0487 8.4673 31.5451 8.25 31.02 8.25ZM10.56 7.5625C10.56 5.92147 11.1858 4.34766 12.2998 3.18728C13.4138 2.0269 14.9246 1.375 16.5 1.375C18.0754 1.375 19.5862 2.0269 20.7002 3.18728C21.8142 4.34766 22.44 5.92147 22.44 7.5625V8.25H10.56V7.5625ZM31.68 30.9375C31.68 31.1198 31.6105 31.2947 31.4867 31.4236C31.3629 31.5526 31.195 31.625 31.02 31.625H1.98C1.80496 31.625 1.63708 31.5526 1.51331 31.4236C1.38954 31.2947 1.32 31.1198 1.32 30.9375V10.3125C1.32 10.1302 1.38954 9.95529 1.51331 9.82636C1.63708 9.69743 1.80496 9.625 1.98 9.625H9.24V13.0625C9.24 13.2448 9.30954 13.4197 9.43331 13.5486C9.55708 13.6776 9.72496 13.75 9.9 13.75C10.075 13.75 10.2429 13.6776 10.3667 13.5486C10.4905 13.4197 10.56 13.2448 10.56 13.0625V9.625H22.44V13.0625C22.44 13.2448 22.5095 13.4197 22.6333 13.5486C22.7571 13.6776 22.925 13.75 23.1 13.75C23.275 13.75 23.4429 13.6776 23.5667 13.5486C23.6905 13.4197 23.76 13.2448 23.76 13.0625V9.625H31.02C31.195 9.625 31.3629 9.69743 31.4867 9.82636C31.6105 9.95529 31.68 10.1302 31.68 10.3125V30.9375Z" fill="#333333"/>
</svg>
