<svg width="309" height="68" viewBox="0 0 309 68" fill="none" xmlns="http://www.w3.org/2000/svg">
<path d="M30.0296 10H25.0222V15.3333H20.0148V20.6667H25.0222V15.3333H30.0296V20.6667H35.037V26H30.0296V31.3333H25.0222V36.6667H20.0148V42H15.0074V36.6667H10V42H15.0074V47.3333H20.0148V42H30.0296V47.3333H35.037V52.6667H30.0296V58H35.037V52.6667H40.0444V47.3333H35.037V36.6667H40.0444V31.3333H45.0518V36.6667H50.0593V42H55.0667V36.6667H60.0741V31.3333H55.0667V36.6667H50.0593V31.3333H45.0518V26H50.0593V15.3333H40.0444V20.6667H35.037V15.3333H30.0296V10Z" fill="#735184"/>
<path d="M31.9555 10H26.9481V15.3333H21.9407V20.6667H26.9481V15.3333H31.9555V20.6667H36.963V26H31.9555V31.3333H26.9481V36.6667H21.9407V42H16.9333V36.6667H11.9259V42H16.9333V47.3333H21.9407V42H31.9555V47.3333H36.963V52.6667H31.9555V58H36.963V52.6667H41.9704V47.3333H36.963V36.6667H41.9704V31.3333H46.9778V36.6667H51.9852V42H56.9926V36.6667H62V31.3333H56.9926V36.6667H51.9852V31.3333H46.9778V26H51.9852V15.3333H41.9704V20.6667H36.963V15.3333H31.9555V10Z" fill="#333333" fill-opacity="0.5"/>
<mask id="path-3-outside-1_1_17" maskUnits="userSpaceOnUse" x="74" y="18.2948" width="231" height="34" fill="black">
<rect fill="white" x="74" y="18.2948" width="231" height="34"/>
<path d="M80.028 44.2948C78.504 44.2948 77.298 43.9828 76.41 43.3588C75.522 42.7228 74.952 41.7748 74.7 40.5148C74.616 40.0108 74.712 39.6148 74.988 39.3268C75.276 39.0388 75.672 38.8948 76.176 38.8948C76.668 38.8948 77.022 39.0208 77.238 39.2728C77.466 39.5128 77.652 39.8788 77.796 40.3708C77.94 40.7308 78.18 40.9708 78.516 41.0908C78.864 41.2108 79.368 41.2708 80.028 41.2708H85.932C86.868 41.2708 87.498 41.1208 87.822 40.8208C88.146 40.5088 88.308 39.8668 88.308 38.8948C88.308 37.9348 88.146 37.2988 87.822 36.9868C87.498 36.6748 86.868 36.5188 85.932 36.5188H80.136C78.408 36.5188 77.106 36.0808 76.23 35.2048C75.354 34.3288 74.916 33.0268 74.916 31.2988C74.916 29.5348 75.342 28.2208 76.194 27.3568C77.058 26.4808 78.372 26.0428 80.136 26.0428H85.752C88.572 26.0428 90.24 27.2308 90.756 29.6068C90.852 30.1108 90.756 30.5008 90.468 30.7768C90.18 31.0528 89.784 31.1908 89.28 31.1908C88.812 31.1908 88.464 31.0708 88.236 30.8308C88.008 30.5788 87.828 30.2308 87.696 29.7868C87.552 29.4988 87.33 29.3068 87.03 29.2108C86.742 29.1148 86.316 29.0668 85.752 29.0668H80.136C79.224 29.0668 78.63 29.2048 78.354 29.4808C78.078 29.7568 77.94 30.3628 77.94 31.2988C77.94 32.1628 78.084 32.7448 78.372 33.0448C78.672 33.3448 79.26 33.4948 80.136 33.4948H85.932C87.732 33.4948 89.082 33.9448 89.982 34.8448C90.882 35.7448 91.332 37.0948 91.332 38.8948C91.332 40.7068 90.882 42.0628 89.982 42.9628C89.082 43.8508 87.732 44.2948 85.932 44.2948H80.028ZM105.456 44.2948C103.08 44.2948 101.328 43.7308 100.2 42.6028C99.0718 41.4748 98.5078 39.7348 98.5078 37.3828V29.0668H96.7438C95.7358 29.0668 95.2318 28.5628 95.2318 27.5548C95.2318 26.5468 95.7358 26.0428 96.7438 26.0428H98.5078V23.4148C98.5078 22.4068 99.0118 21.9028 100.02 21.9028C101.028 21.9028 101.532 22.4068 101.532 23.4148V26.0428H105.672C106.68 26.0428 107.184 26.5468 107.184 27.5548C107.184 28.5628 106.68 29.0668 105.672 29.0668H101.532V37.3828C101.532 38.9068 101.808 39.9388 102.36 40.4788C102.912 41.0068 103.944 41.2708 105.456 41.2708C105.924 41.2708 106.29 41.3908 106.554 41.6308C106.83 41.8708 106.968 42.2548 106.968 42.7828C106.968 43.7908 106.464 44.2948 105.456 44.2948ZM113.552 36.4108V37.2748C113.552 38.8228 113.834 39.8788 114.398 40.4428C114.962 40.9948 116.024 41.2708 117.584 41.2708H120.536C121.76 41.2708 122.666 41.1568 123.254 40.9288C123.842 40.7008 124.232 40.2988 124.424 39.7228C124.556 39.2668 124.736 38.9188 124.964 38.6788C125.204 38.4388 125.564 38.3188 126.044 38.3188C126.548 38.3188 126.932 38.4508 127.196 38.7148C127.46 38.9788 127.544 39.3628 127.448 39.8668C127.184 41.3548 126.476 42.4648 125.324 43.1968C124.172 43.9288 122.576 44.2948 120.536 44.2948H117.584C115.196 44.2948 113.42 43.7188 112.256 42.5668C111.104 41.4148 110.528 39.6508 110.528 37.2748V33.0988C110.528 30.6628 111.104 28.8748 112.256 27.7348C113.42 26.5828 115.196 26.0188 117.584 26.0428H120.536C122.936 26.0428 124.712 26.6188 125.864 27.7708C127.016 28.9108 127.592 30.6868 127.592 33.0988V34.8988C127.592 35.9068 127.088 36.4108 126.08 36.4108H113.552ZM117.584 29.0668C116.024 29.0428 114.962 29.3128 114.398 29.8768C113.834 30.4408 113.552 31.5148 113.552 33.0988V33.3868H124.568V33.0988C124.568 31.5268 124.286 30.4648 123.722 29.9128C123.17 29.3488 122.108 29.0668 120.536 29.0668H117.584ZM135.721 51.4948C134.713 51.4948 134.209 50.9908 134.209 49.9828V27.5548C134.209 26.5468 134.713 26.0428 135.721 26.0428C136.729 26.0428 137.233 26.5468 137.233 27.5548V28.0048C137.881 27.3568 138.679 26.8708 139.627 26.5468C140.587 26.2108 141.661 26.0428 142.849 26.0428H144.217C146.617 26.0428 148.393 26.6188 149.545 27.7708C150.697 28.9228 151.273 30.6988 151.273 33.0988V37.2388C151.273 39.6268 150.697 41.4028 149.545 42.5668C148.393 43.7188 146.617 44.2948 144.217 44.2948H137.233V49.9828C137.233 50.9908 136.729 51.4948 135.721 51.4948ZM137.233 41.2708H144.217C145.789 41.2708 146.851 40.9888 147.403 40.4248C147.967 39.8608 148.249 38.7988 148.249 37.2388V33.0988C148.249 31.5268 147.967 30.4648 147.403 29.9128C146.851 29.3488 145.789 29.0668 144.217 29.0668H142.849C141.349 29.0668 140.053 29.2468 138.961 29.6068C137.869 29.9668 137.293 30.5368 137.233 31.3168V41.2708ZM170.736 44.2948C169.728 44.2948 169.224 43.7908 169.224 42.7828V20.4628C169.224 19.4548 169.728 18.9508 170.736 18.9508C171.744 18.9508 172.248 19.4548 172.248 20.4628V27.9688C172.872 27.3328 173.652 26.8528 174.588 26.5288C175.524 26.2048 176.616 26.0428 177.864 26.0428H179.232C181.632 26.0428 183.408 26.6188 184.56 27.7708C185.712 28.9228 186.288 30.6988 186.288 33.0988V37.2388C186.288 39.6268 185.712 41.4028 184.56 42.5668C183.408 43.7188 181.632 44.2948 179.232 44.2948H177.864C176.616 44.2948 175.524 44.1328 174.588 43.8088C173.652 43.4848 172.872 43.0108 172.248 42.3868V42.7828C172.248 43.7908 171.744 44.2948 170.736 44.2948ZM177.864 41.2708H179.232C180.804 41.2708 181.866 40.9888 182.418 40.4248C182.982 39.8488 183.264 38.7868 183.264 37.2388V33.0988C183.264 31.5268 182.976 30.4648 182.4 29.9128C181.836 29.3488 180.78 29.0668 179.232 29.0668H177.864C176.28 29.0668 174.948 29.2708 173.868 29.6788C172.788 30.0748 172.248 30.6988 172.248 31.5508V38.7868C172.248 39.6268 172.788 40.2508 173.868 40.6588C174.948 41.0668 176.28 41.2708 177.864 41.2708ZM197.744 51.4948C196.004 51.4948 194.702 51.0568 193.838 50.1808C192.986 49.3168 192.56 48.0148 192.56 46.2748C192.56 45.2668 193.064 44.7628 194.072 44.7628C195.08 44.7628 195.584 45.2668 195.584 46.2748C195.584 47.1748 195.716 47.7628 195.98 48.0388C196.256 48.3268 196.844 48.4708 197.744 48.4708H204.728C205.616 48.4708 206.198 48.3268 206.474 48.0388C206.75 47.7628 206.888 47.1748 206.888 46.2748V41.7028C206.168 42.7828 205.328 43.4848 204.368 43.8088C203.42 44.1328 202.388 44.2948 201.272 44.2948H199.508C197.132 44.2948 195.38 43.7308 194.252 42.6028C193.124 41.4748 192.56 39.7348 192.56 37.3828V27.5548C192.56 26.5468 193.064 26.0428 194.072 26.0428C195.08 26.0428 195.584 26.5468 195.584 27.5548V37.3828C195.584 38.8948 195.854 39.9208 196.394 40.4608C196.946 41.0008 197.984 41.2708 199.508 41.2708H201.272C203.24 41.2708 204.668 40.9528 205.556 40.3168C206.444 39.6688 206.888 38.6908 206.888 37.3828V27.5548C206.888 26.5468 207.392 26.0428 208.4 26.0428C209.408 26.0428 209.912 26.5468 209.912 27.5548V46.2748C209.912 48.0148 209.48 49.3168 208.616 50.1808C207.752 51.0568 206.456 51.4948 204.728 51.4948H197.744ZM232.993 44.2948C231.469 44.2948 230.263 43.9828 229.375 43.3588C228.487 42.7228 227.917 41.7748 227.665 40.5148C227.581 40.0108 227.677 39.6148 227.953 39.3268C228.241 39.0388 228.637 38.8948 229.141 38.8948C229.633 38.8948 229.987 39.0208 230.203 39.2728C230.431 39.5128 230.617 39.8788 230.761 40.3708C230.905 40.7308 231.145 40.9708 231.481 41.0908C231.829 41.2108 232.333 41.2708 232.993 41.2708H238.897C239.833 41.2708 240.463 41.1208 240.787 40.8208C241.111 40.5088 241.273 39.8668 241.273 38.8948C241.273 37.9348 241.111 37.2988 240.787 36.9868C240.463 36.6748 239.833 36.5188 238.897 36.5188H233.101C231.373 36.5188 230.071 36.0808 229.195 35.2048C228.319 34.3288 227.881 33.0268 227.881 31.2988C227.881 29.5348 228.307 28.2208 229.159 27.3568C230.023 26.4808 231.337 26.0428 233.101 26.0428H238.717C241.537 26.0428 243.205 27.2308 243.721 29.6068C243.817 30.1108 243.721 30.5008 243.433 30.7768C243.145 31.0528 242.749 31.1908 242.245 31.1908C241.777 31.1908 241.429 31.0708 241.201 30.8308C240.973 30.5788 240.793 30.2308 240.661 29.7868C240.517 29.4988 240.295 29.3068 239.995 29.2108C239.707 29.1148 239.281 29.0668 238.717 29.0668H233.101C232.189 29.0668 231.595 29.2048 231.319 29.4808C231.043 29.7568 230.905 30.3628 230.905 31.2988C230.905 32.1628 231.049 32.7448 231.337 33.0448C231.637 33.3448 232.225 33.4948 233.101 33.4948H238.897C240.697 33.4948 242.047 33.9448 242.947 34.8448C243.847 35.7448 244.297 37.0948 244.297 38.8948C244.297 40.7068 243.847 42.0628 242.947 42.9628C242.047 43.8508 240.697 44.2948 238.897 44.2948H232.993ZM258.421 44.2948C256.045 44.2948 254.293 43.7308 253.165 42.6028C252.037 41.4748 251.473 39.7348 251.473 37.3828V29.0668H249.709C248.701 29.0668 248.197 28.5628 248.197 27.5548C248.197 26.5468 248.701 26.0428 249.709 26.0428H251.473V23.4148C251.473 22.4068 251.977 21.9028 252.985 21.9028C253.993 21.9028 254.497 22.4068 254.497 23.4148V26.0428H258.637C259.645 26.0428 260.149 26.5468 260.149 27.5548C260.149 28.5628 259.645 29.0668 258.637 29.0668H254.497V37.3828C254.497 38.9068 254.773 39.9388 255.325 40.4788C255.877 41.0068 256.909 41.2708 258.421 41.2708C258.889 41.2708 259.255 41.3908 259.519 41.6308C259.795 41.8708 259.933 42.2548 259.933 42.7828C259.933 43.7908 259.429 44.2948 258.421 44.2948ZM266.517 36.4108V37.2748C266.517 38.8228 266.799 39.8788 267.363 40.4428C267.927 40.9948 268.989 41.2708 270.549 41.2708H273.501C274.725 41.2708 275.631 41.1568 276.219 40.9288C276.807 40.7008 277.197 40.2988 277.389 39.7228C277.521 39.2668 277.701 38.9188 277.929 38.6788C278.169 38.4388 278.529 38.3188 279.009 38.3188C279.513 38.3188 279.897 38.4508 280.161 38.7148C280.425 38.9788 280.509 39.3628 280.413 39.8668C280.149 41.3548 279.441 42.4648 278.289 43.1968C277.137 43.9288 275.541 44.2948 273.501 44.2948H270.549C268.161 44.2948 266.385 43.7188 265.221 42.5668C264.069 41.4148 263.493 39.6508 263.493 37.2748V33.0988C263.493 30.6628 264.069 28.8748 265.221 27.7348C266.385 26.5828 268.161 26.0188 270.549 26.0428H273.501C275.901 26.0428 277.677 26.6188 278.829 27.7708C279.981 28.9108 280.557 30.6868 280.557 33.0988V34.8988C280.557 35.9068 280.053 36.4108 279.045 36.4108H266.517ZM270.549 29.0668C268.989 29.0428 267.927 29.3128 267.363 29.8768C266.799 30.4408 266.517 31.5148 266.517 33.0988V33.3868H277.533V33.0988C277.533 31.5268 277.251 30.4648 276.687 29.9128C276.135 29.3488 275.073 29.0668 273.501 29.0668H270.549ZM288.686 51.4948C287.678 51.4948 287.174 50.9908 287.174 49.9828V27.5548C287.174 26.5468 287.678 26.0428 288.686 26.0428C289.694 26.0428 290.198 26.5468 290.198 27.5548V28.0048C290.846 27.3568 291.644 26.8708 292.592 26.5468C293.552 26.2108 294.626 26.0428 295.814 26.0428H297.182C299.582 26.0428 301.358 26.6188 302.51 27.7708C303.662 28.9228 304.238 30.6988 304.238 33.0988V37.2388C304.238 39.6268 303.662 41.4028 302.51 42.5668C301.358 43.7188 299.582 44.2948 297.182 44.2948H290.198V49.9828C290.198 50.9908 289.694 51.4948 288.686 51.4948ZM290.198 41.2708H297.182C298.754 41.2708 299.816 40.9888 300.368 40.4248C300.932 39.8608 301.214 38.7988 301.214 37.2388V33.0988C301.214 31.5268 300.932 30.4648 300.368 29.9128C299.816 29.3488 298.754 29.0668 297.182 29.0668H295.814C294.314 29.0668 293.018 29.2468 291.926 29.6068C290.834 29.9668 290.258 30.5368 290.198 31.3168V41.2708Z"/>
</mask>
<path d="M80.028 44.2948C78.504 44.2948 77.298 43.9828 76.41 43.3588C75.522 42.7228 74.952 41.7748 74.7 40.5148C74.616 40.0108 74.712 39.6148 74.988 39.3268C75.276 39.0388 75.672 38.8948 76.176 38.8948C76.668 38.8948 77.022 39.0208 77.238 39.2728C77.466 39.5128 77.652 39.8788 77.796 40.3708C77.94 40.7308 78.18 40.9708 78.516 41.0908C78.864 41.2108 79.368 41.2708 80.028 41.2708H85.932C86.868 41.2708 87.498 41.1208 87.822 40.8208C88.146 40.5088 88.308 39.8668 88.308 38.8948C88.308 37.9348 88.146 37.2988 87.822 36.9868C87.498 36.6748 86.868 36.5188 85.932 36.5188H80.136C78.408 36.5188 77.106 36.0808 76.23 35.2048C75.354 34.3288 74.916 33.0268 74.916 31.2988C74.916 29.5348 75.342 28.2208 76.194 27.3568C77.058 26.4808 78.372 26.0428 80.136 26.0428H85.752C88.572 26.0428 90.24 27.2308 90.756 29.6068C90.852 30.1108 90.756 30.5008 90.468 30.7768C90.18 31.0528 89.784 31.1908 89.28 31.1908C88.812 31.1908 88.464 31.0708 88.236 30.8308C88.008 30.5788 87.828 30.2308 87.696 29.7868C87.552 29.4988 87.33 29.3068 87.03 29.2108C86.742 29.1148 86.316 29.0668 85.752 29.0668H80.136C79.224 29.0668 78.63 29.2048 78.354 29.4808C78.078 29.7568 77.94 30.3628 77.94 31.2988C77.94 32.1628 78.084 32.7448 78.372 33.0448C78.672 33.3448 79.26 33.4948 80.136 33.4948H85.932C87.732 33.4948 89.082 33.9448 89.982 34.8448C90.882 35.7448 91.332 37.0948 91.332 38.8948C91.332 40.7068 90.882 42.0628 89.982 42.9628C89.082 43.8508 87.732 44.2948 85.932 44.2948H80.028ZM105.456 44.2948C103.08 44.2948 101.328 43.7308 100.2 42.6028C99.0718 41.4748 98.5078 39.7348 98.5078 37.3828V29.0668H96.7438C95.7358 29.0668 95.2318 28.5628 95.2318 27.5548C95.2318 26.5468 95.7358 26.0428 96.7438 26.0428H98.5078V23.4148C98.5078 22.4068 99.0118 21.9028 100.02 21.9028C101.028 21.9028 101.532 22.4068 101.532 23.4148V26.0428H105.672C106.68 26.0428 107.184 26.5468 107.184 27.5548C107.184 28.5628 106.68 29.0668 105.672 29.0668H101.532V37.3828C101.532 38.9068 101.808 39.9388 102.36 40.4788C102.912 41.0068 103.944 41.2708 105.456 41.2708C105.924 41.2708 106.29 41.3908 106.554 41.6308C106.83 41.8708 106.968 42.2548 106.968 42.7828C106.968 43.7908 106.464 44.2948 105.456 44.2948ZM113.552 36.4108V37.2748C113.552 38.8228 113.834 39.8788 114.398 40.4428C114.962 40.9948 116.024 41.2708 117.584 41.2708H120.536C121.76 41.2708 122.666 41.1568 123.254 40.9288C123.842 40.7008 124.232 40.2988 124.424 39.7228C124.556 39.2668 124.736 38.9188 124.964 38.6788C125.204 38.4388 125.564 38.3188 126.044 38.3188C126.548 38.3188 126.932 38.4508 127.196 38.7148C127.46 38.9788 127.544 39.3628 127.448 39.8668C127.184 41.3548 126.476 42.4648 125.324 43.1968C124.172 43.9288 122.576 44.2948 120.536 44.2948H117.584C115.196 44.2948 113.42 43.7188 112.256 42.5668C111.104 41.4148 110.528 39.6508 110.528 37.2748V33.0988C110.528 30.6628 111.104 28.8748 112.256 27.7348C113.42 26.5828 115.196 26.0188 117.584 26.0428H120.536C122.936 26.0428 124.712 26.6188 125.864 27.7708C127.016 28.9108 127.592 30.6868 127.592 33.0988V34.8988C127.592 35.9068 127.088 36.4108 126.08 36.4108H113.552ZM117.584 29.0668C116.024 29.0428 114.962 29.3128 114.398 29.8768C113.834 30.4408 113.552 31.5148 113.552 33.0988V33.3868H124.568V33.0988C124.568 31.5268 124.286 30.4648 123.722 29.9128C123.17 29.3488 122.108 29.0668 120.536 29.0668H117.584ZM135.721 51.4948C134.713 51.4948 134.209 50.9908 134.209 49.9828V27.5548C134.209 26.5468 134.713 26.0428 135.721 26.0428C136.729 26.0428 137.233 26.5468 137.233 27.5548V28.0048C137.881 27.3568 138.679 26.8708 139.627 26.5468C140.587 26.2108 141.661 26.0428 142.849 26.0428H144.217C146.617 26.0428 148.393 26.6188 149.545 27.7708C150.697 28.9228 151.273 30.6988 151.273 33.0988V37.2388C151.273 39.6268 150.697 41.4028 149.545 42.5668C148.393 43.7188 146.617 44.2948 144.217 44.2948H137.233V49.9828C137.233 50.9908 136.729 51.4948 135.721 51.4948ZM137.233 41.2708H144.217C145.789 41.2708 146.851 40.9888 147.403 40.4248C147.967 39.8608 148.249 38.7988 148.249 37.2388V33.0988C148.249 31.5268 147.967 30.4648 147.403 29.9128C146.851 29.3488 145.789 29.0668 144.217 29.0668H142.849C141.349 29.0668 140.053 29.2468 138.961 29.6068C137.869 29.9668 137.293 30.5368 137.233 31.3168V41.2708ZM170.736 44.2948C169.728 44.2948 169.224 43.7908 169.224 42.7828V20.4628C169.224 19.4548 169.728 18.9508 170.736 18.9508C171.744 18.9508 172.248 19.4548 172.248 20.4628V27.9688C172.872 27.3328 173.652 26.8528 174.588 26.5288C175.524 26.2048 176.616 26.0428 177.864 26.0428H179.232C181.632 26.0428 183.408 26.6188 184.56 27.7708C185.712 28.9228 186.288 30.6988 186.288 33.0988V37.2388C186.288 39.6268 185.712 41.4028 184.56 42.5668C183.408 43.7188 181.632 44.2948 179.232 44.2948H177.864C176.616 44.2948 175.524 44.1328 174.588 43.8088C173.652 43.4848 172.872 43.0108 172.248 42.3868V42.7828C172.248 43.7908 171.744 44.2948 170.736 44.2948ZM177.864 41.2708H179.232C180.804 41.2708 181.866 40.9888 182.418 40.4248C182.982 39.8488 183.264 38.7868 183.264 37.2388V33.0988C183.264 31.5268 182.976 30.4648 182.4 29.9128C181.836 29.3488 180.78 29.0668 179.232 29.0668H177.864C176.28 29.0668 174.948 29.2708 173.868 29.6788C172.788 30.0748 172.248 30.6988 172.248 31.5508V38.7868C172.248 39.6268 172.788 40.2508 173.868 40.6588C174.948 41.0668 176.28 41.2708 177.864 41.2708ZM197.744 51.4948C196.004 51.4948 194.702 51.0568 193.838 50.1808C192.986 49.3168 192.56 48.0148 192.56 46.2748C192.56 45.2668 193.064 44.7628 194.072 44.7628C195.08 44.7628 195.584 45.2668 195.584 46.2748C195.584 47.1748 195.716 47.7628 195.98 48.0388C196.256 48.3268 196.844 48.4708 197.744 48.4708H204.728C205.616 48.4708 206.198 48.3268 206.474 48.0388C206.75 47.7628 206.888 47.1748 206.888 46.2748V41.7028C206.168 42.7828 205.328 43.4848 204.368 43.8088C203.42 44.1328 202.388 44.2948 201.272 44.2948H199.508C197.132 44.2948 195.38 43.7308 194.252 42.6028C193.124 41.4748 192.56 39.7348 192.56 37.3828V27.5548C192.56 26.5468 193.064 26.0428 194.072 26.0428C195.08 26.0428 195.584 26.5468 195.584 27.5548V37.3828C195.584 38.8948 195.854 39.9208 196.394 40.4608C196.946 41.0008 197.984 41.2708 199.508 41.2708H201.272C203.24 41.2708 204.668 40.9528 205.556 40.3168C206.444 39.6688 206.888 38.6908 206.888 37.3828V27.5548C206.888 26.5468 207.392 26.0428 208.4 26.0428C209.408 26.0428 209.912 26.5468 209.912 27.5548V46.2748C209.912 48.0148 209.48 49.3168 208.616 50.1808C207.752 51.0568 206.456 51.4948 204.728 51.4948H197.744ZM232.993 44.2948C231.469 44.2948 230.263 43.9828 229.375 43.3588C228.487 42.7228 227.917 41.7748 227.665 40.5148C227.581 40.0108 227.677 39.6148 227.953 39.3268C228.241 39.0388 228.637 38.8948 229.141 38.8948C229.633 38.8948 229.987 39.0208 230.203 39.2728C230.431 39.5128 230.617 39.8788 230.761 40.3708C230.905 40.7308 231.145 40.9708 231.481 41.0908C231.829 41.2108 232.333 41.2708 232.993 41.2708H238.897C239.833 41.2708 240.463 41.1208 240.787 40.8208C241.111 40.5088 241.273 39.8668 241.273 38.8948C241.273 37.9348 241.111 37.2988 240.787 36.9868C240.463 36.6748 239.833 36.5188 238.897 36.5188H233.101C231.373 36.5188 230.071 36.0808 229.195 35.2048C228.319 34.3288 227.881 33.0268 227.881 31.2988C227.881 29.5348 228.307 28.2208 229.159 27.3568C230.023 26.4808 231.337 26.0428 233.101 26.0428H238.717C241.537 26.0428 243.205 27.2308 243.721 29.6068C243.817 30.1108 243.721 30.5008 243.433 30.7768C243.145 31.0528 242.749 31.1908 242.245 31.1908C241.777 31.1908 241.429 31.0708 241.201 30.8308C240.973 30.5788 240.793 30.2308 240.661 29.7868C240.517 29.4988 240.295 29.3068 239.995 29.2108C239.707 29.1148 239.281 29.0668 238.717 29.0668H233.101C232.189 29.0668 231.595 29.2048 231.319 29.4808C231.043 29.7568 230.905 30.3628 230.905 31.2988C230.905 32.1628 231.049 32.7448 231.337 33.0448C231.637 33.3448 232.225 33.4948 233.101 33.4948H238.897C240.697 33.4948 242.047 33.9448 242.947 34.8448C243.847 35.7448 244.297 37.0948 244.297 38.8948C244.297 40.7068 243.847 42.0628 242.947 42.9628C242.047 43.8508 240.697 44.2948 238.897 44.2948H232.993ZM258.421 44.2948C256.045 44.2948 254.293 43.7308 253.165 42.6028C252.037 41.4748 251.473 39.7348 251.473 37.3828V29.0668H249.709C248.701 29.0668 248.197 28.5628 248.197 27.5548C248.197 26.5468 248.701 26.0428 249.709 26.0428H251.473V23.4148C251.473 22.4068 251.977 21.9028 252.985 21.9028C253.993 21.9028 254.497 22.4068 254.497 23.4148V26.0428H258.637C259.645 26.0428 260.149 26.5468 260.149 27.5548C260.149 28.5628 259.645 29.0668 258.637 29.0668H254.497V37.3828C254.497 38.9068 254.773 39.9388 255.325 40.4788C255.877 41.0068 256.909 41.2708 258.421 41.2708C258.889 41.2708 259.255 41.3908 259.519 41.6308C259.795 41.8708 259.933 42.2548 259.933 42.7828C259.933 43.7908 259.429 44.2948 258.421 44.2948ZM266.517 36.4108V37.2748C266.517 38.8228 266.799 39.8788 267.363 40.4428C267.927 40.9948 268.989 41.2708 270.549 41.2708H273.501C274.725 41.2708 275.631 41.1568 276.219 40.9288C276.807 40.7008 277.197 40.2988 277.389 39.7228C277.521 39.2668 277.701 38.9188 277.929 38.6788C278.169 38.4388 278.529 38.3188 279.009 38.3188C279.513 38.3188 279.897 38.4508 280.161 38.7148C280.425 38.9788 280.509 39.3628 280.413 39.8668C280.149 41.3548 279.441 42.4648 278.289 43.1968C277.137 43.9288 275.541 44.2948 273.501 44.2948H270.549C268.161 44.2948 266.385 43.7188 265.221 42.5668C264.069 41.4148 263.493 39.6508 263.493 37.2748V33.0988C263.493 30.6628 264.069 28.8748 265.221 27.7348C266.385 26.5828 268.161 26.0188 270.549 26.0428H273.501C275.901 26.0428 277.677 26.6188 278.829 27.7708C279.981 28.9108 280.557 30.6868 280.557 33.0988V34.8988C280.557 35.9068 280.053 36.4108 279.045 36.4108H266.517ZM270.549 29.0668C268.989 29.0428 267.927 29.3128 267.363 29.8768C266.799 30.4408 266.517 31.5148 266.517 33.0988V33.3868H277.533V33.0988C277.533 31.5268 277.251 30.4648 276.687 29.9128C276.135 29.3488 275.073 29.0668 273.501 29.0668H270.549ZM288.686 51.4948C287.678 51.4948 287.174 50.9908 287.174 49.9828V27.5548C287.174 26.5468 287.678 26.0428 288.686 26.0428C289.694 26.0428 290.198 26.5468 290.198 27.5548V28.0048C290.846 27.3568 291.644 26.8708 292.592 26.5468C293.552 26.2108 294.626 26.0428 295.814 26.0428H297.182C299.582 26.0428 301.358 26.6188 302.51 27.7708C303.662 28.9228 304.238 30.6988 304.238 33.0988V37.2388C304.238 39.6268 303.662 41.4028 302.51 42.5668C301.358 43.7188 299.582 44.2948 297.182 44.2948H290.198V49.9828C290.198 50.9908 289.694 51.4948 288.686 51.4948ZM290.198 41.2708H297.182C298.754 41.2708 299.816 40.9888 300.368 40.4248C300.932 39.8608 301.214 38.7988 301.214 37.2388V33.0988C301.214 31.5268 300.932 30.4648 300.368 29.9128C299.816 29.3488 298.754 29.0668 297.182 29.0668H295.814C294.314 29.0668 293.018 29.2468 291.926 29.6068C290.834 29.9668 290.258 30.5368 290.198 31.3168V41.2708Z" fill="#333333"/>
<path d="M76.41 43.3588L76.1188 43.7653L76.1225 43.7679L76.41 43.3588ZM74.7 40.5148L74.2068 40.597L74.2081 40.6049L74.2097 40.6128L74.7 40.5148ZM74.988 39.3268L74.6344 38.9731L74.627 38.9808L74.988 39.3268ZM77.238 39.2728L76.8584 39.5982L76.8667 39.6079L76.8755 39.6171L77.238 39.2728ZM77.796 40.3708L77.3161 40.5112L77.3229 40.5342L77.3318 40.5565L77.796 40.3708ZM78.516 41.0908L78.3478 41.5617L78.353 41.5635L78.516 41.0908ZM87.822 40.8208L88.1618 41.1877L88.1688 41.1809L87.822 40.8208ZM87.822 36.9868L88.1688 36.6266L88.1688 36.6266L87.822 36.9868ZM76.23 35.2048L75.8764 35.5583L76.23 35.2048ZM76.194 27.3568L75.838 27.0057L75.838 27.0057L76.194 27.3568ZM90.756 29.6068L91.2473 29.5132L91.2446 29.5007L90.756 29.6068ZM90.468 30.7768L90.122 30.4158V30.4158L90.468 30.7768ZM88.236 30.8308L87.8651 31.1663L87.8735 31.1751L88.236 30.8308ZM87.696 29.7868L88.1753 29.6443L88.1628 29.6023L88.1432 29.5632L87.696 29.7868ZM87.03 29.2108L86.8719 29.6851L86.8776 29.687L87.03 29.2108ZM78.372 33.0448L78.0112 33.3911L78.0184 33.3983L78.372 33.0448ZM89.982 34.8448L90.3356 34.4912L89.982 34.8448ZM89.982 42.9628L90.3332 43.3187L90.3356 43.3163L89.982 42.9628ZM80.028 43.7948C78.5667 43.7948 77.4735 43.495 76.6975 42.9497L76.1225 43.7679C77.1225 44.4706 78.4413 44.7948 80.028 44.7948V43.7948ZM76.7011 42.9523C75.9341 42.4029 75.4221 41.5757 75.1903 40.4167L74.2097 40.6128C74.4819 41.9738 75.1099 43.0426 76.1189 43.7653L76.7011 42.9523ZM75.1932 40.4326C75.1271 40.036 75.212 39.8157 75.349 39.6727L74.627 38.9808C74.212 39.4138 74.1049 39.9855 74.2068 40.597L75.1932 40.4326ZM75.3416 39.6803C75.5146 39.5073 75.7712 39.3948 76.176 39.3948V38.3948C75.5728 38.3948 75.0374 38.5702 74.6344 38.9732L75.3416 39.6803ZM76.176 39.3948C76.5937 39.3948 76.7758 39.5018 76.8584 39.5982L77.6176 38.9474C77.2682 38.5398 76.7423 38.3948 76.176 38.3948V39.3948ZM76.8755 39.6171C77.0268 39.7764 77.1834 40.0576 77.3161 40.5112L78.2759 40.2303C78.1206 39.6999 77.9052 39.2492 77.6005 38.9284L76.8755 39.6171ZM77.3318 40.5565C77.5238 41.0366 77.8642 41.3889 78.3478 41.5616L78.6842 40.6199C78.4958 40.5526 78.3562 40.425 78.2602 40.1851L77.3318 40.5565ZM78.353 41.5635C78.7795 41.7105 79.3492 41.7708 80.028 41.7708V40.7708C79.3868 40.7708 78.9485 40.711 78.679 40.6181L78.353 41.5635ZM80.028 41.7708H85.932V40.7708H80.028V41.7708ZM85.932 41.7708C86.4233 41.7708 86.8567 41.7317 87.2223 41.6447C87.5846 41.5584 87.9139 41.4171 88.1617 41.1876L87.4823 40.4539C87.4061 40.5244 87.2584 40.6081 86.9907 40.6719C86.7263 40.7348 86.3767 40.7708 85.932 40.7708V41.7708ZM88.1688 41.1809C88.4228 40.9364 88.5776 40.5991 88.6713 40.2276C88.7659 39.8527 88.808 39.4047 88.808 38.8948H87.808C87.808 39.3568 87.7691 39.7158 87.7017 39.9829C87.6334 40.2535 87.5452 40.3932 87.4752 40.4606L88.1688 41.1809ZM88.808 38.8948C88.808 38.3905 88.7658 37.9466 88.671 37.5744C88.577 37.2051 88.4219 36.8703 88.1688 36.6266L87.4752 37.3469C87.5461 37.4152 87.634 37.5544 87.702 37.8212C87.7692 38.085 87.808 38.4391 87.808 38.8948H88.808ZM88.1688 36.6266C87.9216 36.3886 87.5914 36.2407 87.2267 36.1504C86.8593 36.0595 86.4243 36.0188 85.932 36.0188V37.0188C86.3757 37.0188 86.7237 37.0561 86.9863 37.1211C87.2516 37.1868 87.3984 37.273 87.4752 37.3469L88.1688 36.6266ZM85.932 36.0188H80.136V37.0188H85.932V36.0188ZM80.136 36.0188C78.4874 36.0188 77.3339 35.6015 76.5836 34.8512L75.8764 35.5583C76.8781 36.56 78.3286 37.0188 80.136 37.0188V36.0188ZM76.5836 34.8512C75.8332 34.1009 75.416 32.9474 75.416 31.2988H74.416C74.416 33.1062 74.8748 34.5567 75.8764 35.5583L76.5836 34.8512ZM75.416 31.2988C75.416 29.6066 75.825 28.4431 76.55 27.7078L75.838 27.0057C74.859 27.9985 74.416 29.4629 74.416 31.2988H75.416ZM76.55 27.7079C77.2857 26.962 78.4473 26.5428 80.136 26.5428V25.5428C78.2967 25.5428 76.8303 25.9996 75.838 27.0057L76.55 27.7079ZM80.136 26.5428H85.752V25.5428H80.136V26.5428ZM85.752 26.5428C87.0963 26.5428 88.1052 26.8263 88.8279 27.341C89.5421 27.8497 90.0306 28.6224 90.2674 29.7129L91.2446 29.5007C90.9654 28.2152 90.3619 27.2058 89.4081 26.5265C88.4628 25.8532 87.2277 25.5428 85.752 25.5428V26.5428ZM90.2648 29.7003C90.3394 30.0917 90.253 30.2903 90.122 30.4158L90.814 31.1378C91.259 30.7112 91.3646 30.1298 91.2472 29.5132L90.2648 29.7003ZM90.122 30.4158C89.95 30.5807 89.6906 30.6908 89.28 30.6908V31.6908C89.8774 31.6908 90.41 31.5248 90.814 31.1378L90.122 30.4158ZM89.28 30.6908C88.8913 30.6908 88.6986 30.5917 88.5985 30.4864L87.8735 31.1751C88.2294 31.5498 88.7327 31.6908 89.28 31.6908V30.6908ZM88.6068 30.4953C88.4437 30.315 88.2933 30.0413 88.1753 29.6443L87.2167 29.9293C87.3627 30.4203 87.5723 30.8425 87.8652 31.1662L88.6068 30.4953ZM88.1432 29.5632C87.9405 29.1577 87.6139 28.8726 87.1824 28.7346L86.8776 29.687C87.0461 29.7409 87.1635 29.8398 87.2488 30.0104L88.1432 29.5632ZM87.1881 28.7364C86.8226 28.6146 86.332 28.5668 85.752 28.5668V29.5668C86.3 29.5668 86.6614 29.6149 86.8719 29.6851L87.1881 28.7364ZM85.752 28.5668H80.136V29.5668H85.752V28.5668ZM80.136 28.5668C79.6587 28.5668 79.2408 28.6025 78.8934 28.6832C78.5523 28.7625 78.2319 28.8958 78.0004 29.1272L78.7076 29.8343C78.7521 29.7898 78.8667 29.7161 79.1196 29.6573C79.3662 29.6 79.7013 29.5668 80.136 29.5668V28.5668ZM78.0004 29.1272C77.7673 29.3604 77.6346 29.686 77.556 30.0312C77.4756 30.384 77.44 30.8102 77.44 31.2988H78.44C78.44 30.8514 78.4734 30.5065 78.531 30.2533C78.5904 29.9926 78.6647 29.8771 78.7076 29.8343L78.0004 29.1272ZM77.44 31.2988C77.44 31.7551 77.4777 32.16 77.5626 32.5034C77.6469 32.8441 77.7857 33.156 78.0113 33.391L78.7327 32.6985C78.6703 32.6335 78.5931 32.5045 78.5334 32.2632C78.4743 32.0245 78.44 31.7064 78.44 31.2988H77.44ZM78.0184 33.3983C78.2536 33.6334 78.5688 33.7786 78.9144 33.8668C79.2623 33.9555 79.673 33.9948 80.136 33.9948V32.9948C79.723 32.9948 79.4017 32.959 79.1616 32.8978C78.9192 32.836 78.7904 32.7561 78.7256 32.6912L78.0184 33.3983ZM80.136 33.9948H85.932V32.9948H80.136V33.9948ZM85.932 33.9948C87.6549 33.9948 88.8553 34.4252 89.6284 35.1983L90.3356 34.4912C89.3087 33.4644 87.8091 32.9948 85.932 32.9948V33.9948ZM89.6284 35.1983C90.4016 35.9715 90.832 37.1718 90.832 38.8948H91.832C91.832 37.0177 91.3624 35.5181 90.3356 34.4912L89.6284 35.1983ZM90.832 38.8948C90.832 40.6308 90.401 41.8366 89.6284 42.6092L90.3356 43.3163C91.363 42.2889 91.832 40.7827 91.832 38.8948H90.832ZM89.6308 42.6068C88.8579 43.3695 87.6566 43.7948 85.932 43.7948V44.7948C87.8074 44.7948 89.3061 44.3321 90.3332 43.3187L89.6308 42.6068ZM85.932 43.7948H80.028V44.7948H85.932V43.7948ZM98.5078 29.0668H99.0078V28.5668H98.5078V29.0668ZM98.5078 26.0428V26.5428H99.0078V26.0428H98.5078ZM101.532 26.0428H101.032V26.5428H101.532V26.0428ZM101.532 29.0668V28.5668H101.032V29.0668H101.532ZM102.36 40.4788L102.01 40.8362L102.014 40.8401L102.36 40.4788ZM106.554 41.6308L106.217 42.0008L106.226 42.0081L106.554 41.6308ZM105.456 43.7948C103.148 43.7948 101.55 43.2461 100.553 42.2492L99.8463 42.9563C101.105 44.2154 103.012 44.7948 105.456 44.7948V43.7948ZM100.553 42.2492C99.5557 41.2515 99.0078 39.6648 99.0078 37.3828H98.0078C98.0078 39.8048 98.588 41.698 99.8463 42.9563L100.553 42.2492ZM99.0078 37.3828V29.0668H98.0078V37.3828H99.0078ZM98.5078 28.5668H96.7438V29.5668H98.5078V28.5668ZM96.7438 28.5668C96.3169 28.5668 96.0885 28.4604 95.9634 28.3352C95.8382 28.2101 95.7318 27.9817 95.7318 27.5548H94.7318C94.7318 28.1358 94.8774 28.6635 95.2563 29.0423C95.6351 29.4212 96.1627 29.5668 96.7438 29.5668V28.5668ZM95.7318 27.5548C95.7318 27.1278 95.8382 26.8995 95.9634 26.7743C96.0885 26.6492 96.3169 26.5428 96.7438 26.5428V25.5428C96.1627 25.5428 95.6351 25.6884 95.2563 26.0672C94.8774 26.4461 94.7318 26.9737 94.7318 27.5548H95.7318ZM96.7438 26.5428H98.5078V25.5428H96.7438V26.5428ZM99.0078 26.0428V23.4148H98.0078V26.0428H99.0078ZM99.0078 23.4148C99.0078 22.9878 99.1142 22.7595 99.2394 22.6343C99.3645 22.5092 99.5929 22.4028 100.02 22.4028V21.4028C99.4387 21.4028 98.9111 21.5484 98.5323 21.9272C98.1534 22.3061 98.0078 22.8337 98.0078 23.4148H99.0078ZM100.02 22.4028C100.447 22.4028 100.675 22.5092 100.8 22.6343C100.925 22.7595 101.032 22.9878 101.032 23.4148H102.032C102.032 22.8337 101.886 22.3061 101.507 21.9272C101.129 21.5484 100.601 21.4028 100.02 21.4028V22.4028ZM101.032 23.4148V26.0428H102.032V23.4148H101.032ZM101.532 26.5428H105.672V25.5428H101.532V26.5428ZM105.672 26.5428C106.099 26.5428 106.327 26.6492 106.452 26.7743C106.577 26.8995 106.684 27.1278 106.684 27.5548H107.684C107.684 26.9737 107.538 26.4461 107.159 26.0672C106.781 25.6884 106.253 25.5428 105.672 25.5428V26.5428ZM106.684 27.5548C106.684 27.9817 106.577 28.2101 106.452 28.3352C106.327 28.4604 106.099 28.5668 105.672 28.5668V29.5668C106.253 29.5668 106.781 29.4212 107.159 29.0423C107.538 28.6635 107.684 28.1358 107.684 27.5548H106.684ZM105.672 28.5668H101.532V29.5668H105.672V28.5668ZM101.032 29.0668V37.3828H102.032V29.0668H101.032ZM101.032 37.3828C101.032 38.9265 101.303 40.1444 102.01 40.8362L102.709 40.1214C102.313 39.7332 102.032 38.887 102.032 37.3828H101.032ZM102.014 40.8401C102.716 41.5114 103.924 41.7708 105.456 41.7708V40.7708C103.963 40.7708 103.108 40.5021 102.705 40.1174L102.014 40.8401ZM105.456 41.7708C105.839 41.7708 106.071 41.8678 106.217 42.0007L106.89 41.2608C106.508 40.9138 106.008 40.7708 105.456 40.7708V41.7708ZM106.226 42.0081C106.351 42.1171 106.468 42.3336 106.468 42.7828H107.468C107.468 42.1759 107.309 41.6245 106.882 41.2535L106.226 42.0081ZM106.468 42.7828C106.468 43.2097 106.361 43.4381 106.236 43.5632C106.111 43.6884 105.883 43.7948 105.456 43.7948V44.7948C106.037 44.7948 106.565 44.6492 106.943 44.2703C107.322 43.8915 107.468 43.3638 107.468 42.7828H106.468ZM113.552 36.4108V35.9108H113.052V36.4108H113.552ZM114.398 40.4428L114.045 40.7963L114.049 40.8001L114.398 40.4428ZM123.254 40.9288L123.435 41.395L123.254 40.9288ZM124.424 39.7228L124.899 39.8809L124.902 39.8714L124.905 39.8618L124.424 39.7228ZM124.964 38.6788L124.611 38.3251L124.602 38.3344L124.964 38.6788ZM127.196 38.7148L127.55 38.3612L127.196 38.7148ZM127.448 39.8668L126.957 39.7732L126.956 39.7794L127.448 39.8668ZM112.256 42.5668L111.903 42.9203L111.905 42.9221L112.256 42.5668ZM112.256 27.7348L112.608 28.0902L112.608 28.0901L112.256 27.7348ZM117.584 26.0428L117.579 26.5428H117.584V26.0428ZM125.864 27.7708L125.511 28.1243L125.513 28.1262L125.864 27.7708ZM117.584 29.0668L117.577 29.5668H117.584V29.0668ZM114.398 29.8768L114.045 29.5232L114.398 29.8768ZM113.552 33.3868H113.052V33.8868H113.552V33.3868ZM124.568 33.3868V33.8868H125.068V33.3868H124.568ZM123.722 29.9128L123.365 30.2626L123.373 30.2701L123.722 29.9128ZM113.052 36.4108V37.2748H114.052V36.4108H113.052ZM113.052 37.2748C113.052 38.8455 113.331 40.0822 114.045 40.7963L114.752 40.0892C114.338 39.6753 114.052 38.8 114.052 37.2748H113.052ZM114.049 40.8001C114.763 41.4995 116.005 41.7708 117.584 41.7708V40.7708C116.044 40.7708 115.162 40.4901 114.748 40.0854L114.049 40.8001ZM117.584 41.7708H120.536V40.7708H117.584V41.7708ZM120.536 41.7708C121.775 41.7708 122.758 41.6576 123.435 41.395L123.074 40.4626C122.575 40.6559 121.746 40.7708 120.536 40.7708V41.7708ZM123.435 41.395C124.156 41.1155 124.658 40.6043 124.899 39.8809L123.95 39.5647C123.807 39.9932 123.529 40.286 123.074 40.4626L123.435 41.395ZM124.905 39.8618C125.023 39.4515 125.173 39.1854 125.327 39.0231L124.602 38.3344C124.3 38.6521 124.089 39.082 123.944 39.5837L124.905 39.8618ZM125.318 39.0323C125.431 38.9192 125.642 38.8188 126.044 38.8188V37.8188C125.487 37.8188 124.978 37.9584 124.611 38.3252L125.318 39.0323ZM126.044 38.8188C126.464 38.8188 126.702 38.9272 126.843 39.0683L127.55 38.3612C127.163 37.9744 126.633 37.8188 126.044 37.8188V38.8188ZM126.843 39.0683C126.949 39.1744 127.035 39.3654 126.957 39.7732L127.94 39.9603C128.054 39.3601 127.972 38.7831 127.55 38.3612L126.843 39.0683ZM126.956 39.7794C126.714 41.1458 126.077 42.1265 125.056 42.7748L125.593 43.6188C126.876 42.8031 127.655 41.5637 127.941 39.9541L126.956 39.7794ZM125.056 42.7748C124.015 43.4365 122.525 43.7948 120.536 43.7948V44.7948C122.627 44.7948 124.33 44.421 125.593 43.6188L125.056 42.7748ZM120.536 43.7948H117.584V44.7948H120.536V43.7948ZM117.584 43.7948C115.268 43.7948 113.643 43.2356 112.608 42.2114L111.905 42.9221C113.198 44.2019 115.125 44.7948 117.584 44.7948V43.7948ZM112.61 42.2132C111.587 41.1906 111.028 39.5789 111.028 37.2748H110.028C110.028 39.7226 110.621 41.6389 111.903 42.9203L112.61 42.2132ZM111.028 37.2748V33.0988H110.028V37.2748H111.028ZM111.028 33.0988C111.028 30.7299 111.59 29.0981 112.608 28.0902L111.905 27.3794C110.619 28.6515 110.028 30.5957 110.028 33.0988H111.028ZM112.608 28.0901C113.641 27.0677 115.264 26.5195 117.579 26.5427L117.589 25.5428C115.129 25.5181 113.2 26.0978 111.905 27.3794L112.608 28.0901ZM117.584 26.5428H120.536V25.5428H117.584V26.5428ZM120.536 26.5428C122.866 26.5428 124.489 27.1025 125.511 28.1243L126.218 27.4172C124.936 26.135 123.007 25.5428 120.536 25.5428V26.5428ZM125.513 28.1262C126.532 29.1348 127.092 30.7556 127.092 33.0988H128.092C128.092 30.618 127.501 28.6867 126.216 27.4154L125.513 28.1262ZM127.092 33.0988V34.8988H128.092V33.0988H127.092ZM127.092 34.8988C127.092 35.3257 126.986 35.5541 126.861 35.6792C126.736 35.8044 126.507 35.9108 126.08 35.9108V36.9108C126.662 36.9108 127.189 36.7652 127.568 36.3863C127.947 36.0075 128.092 35.4798 128.092 34.8988H127.092ZM126.08 35.9108H113.552V36.9108H126.08V35.9108ZM117.592 28.5668C116.011 28.5425 114.763 28.8053 114.045 29.5232L114.752 30.2303C115.162 29.8202 116.038 29.543 117.577 29.5667L117.592 28.5668ZM114.045 29.5232C113.329 30.2388 113.052 31.496 113.052 33.0988H114.052C114.052 31.5335 114.34 30.6428 114.752 30.2303L114.045 29.5232ZM113.052 33.0988V33.3868H114.052V33.0988H113.052ZM113.552 33.8868H124.568V32.8868H113.552V33.8868ZM125.068 33.3868V33.0988H124.068V33.3868H125.068ZM125.068 33.0988C125.068 31.5086 124.792 30.2598 124.072 29.5554L123.373 30.2701C123.781 30.6697 124.068 31.5449 124.068 33.0988H125.068ZM124.08 29.563C123.375 28.8433 122.127 28.5668 120.536 28.5668V29.5668C122.09 29.5668 122.965 29.8542 123.365 30.2625L124.08 29.563ZM120.536 28.5668H117.584V29.5668H120.536V28.5668ZM137.233 28.0048H136.733V29.2119L137.586 28.3583L137.233 28.0048ZM139.627 26.5468L139.789 27.0199L139.792 27.0187L139.627 26.5468ZM149.545 27.7708L149.898 27.4172L149.545 27.7708ZM149.545 42.5668L149.898 42.9203L149.9 42.9185L149.545 42.5668ZM137.233 44.2948V43.7948H136.733V44.2948H137.233ZM137.233 41.2708H136.733V41.7708H137.233V41.2708ZM147.403 40.4248L147.049 40.0712L147.046 40.075L147.403 40.4248ZM147.403 29.9128L147.045 30.2626L147.053 30.2701L147.403 29.9128ZM138.961 29.6068L138.804 29.1319L138.961 29.6068ZM137.233 31.3168L136.734 31.2784L136.733 31.2976V31.3168H137.233ZM135.721 50.9948C135.294 50.9948 135.066 50.8884 134.94 50.7632C134.815 50.6381 134.709 50.4097 134.709 49.9828H133.709C133.709 50.5638 133.854 51.0915 134.233 51.4703C134.612 51.8492 135.14 51.9948 135.721 51.9948V50.9948ZM134.709 49.9828V27.5548H133.709V49.9828H134.709ZM134.709 27.5548C134.709 27.1278 134.815 26.8995 134.94 26.7743C135.066 26.6492 135.294 26.5428 135.721 26.5428V25.5428C135.14 25.5428 134.612 25.6884 134.233 26.0672C133.854 26.4461 133.709 26.9737 133.709 27.5548H134.709ZM135.721 26.5428C136.148 26.5428 136.376 26.6492 136.501 26.7743C136.626 26.8995 136.733 27.1278 136.733 27.5548H137.733C137.733 26.9737 137.587 26.4461 137.208 26.0672C136.83 25.6884 136.302 25.5428 135.721 25.5428V26.5428ZM136.733 27.5548V28.0048H137.733V27.5548H136.733ZM137.586 28.3583C138.176 27.7692 138.906 27.3215 139.789 27.0199L139.465 26.0736C138.452 26.42 137.586 26.9443 136.879 27.6512L137.586 28.3583ZM139.792 27.0187C140.691 26.7041 141.708 26.5428 142.849 26.5428V25.5428C141.614 25.5428 140.483 25.7174 139.462 26.0748L139.792 27.0187ZM142.849 26.5428H144.217V25.5428H142.849V26.5428ZM144.217 26.5428C146.547 26.5428 148.17 27.1025 149.191 28.1243L149.898 27.4172C148.616 26.135 146.687 25.5428 144.217 25.5428V26.5428ZM149.191 28.1243C150.213 29.1461 150.773 30.7689 150.773 33.0988H151.773C151.773 30.6286 151.181 28.6994 149.898 27.4172L149.191 28.1243ZM150.773 33.0988V37.2388H151.773V33.0988H150.773ZM150.773 37.2388C150.773 39.5553 150.214 41.1802 149.189 42.2151L149.9 42.9185C151.18 41.6254 151.773 39.6983 151.773 37.2388H150.773ZM149.191 42.2132C148.17 43.235 146.547 43.7948 144.217 43.7948V44.7948C146.687 44.7948 148.616 44.2025 149.898 42.9203L149.191 42.2132ZM144.217 43.7948H137.233V44.7948H144.217V43.7948ZM136.733 44.2948V49.9828H137.733V44.2948H136.733ZM136.733 49.9828C136.733 50.4097 136.626 50.6381 136.501 50.7632C136.376 50.8884 136.148 50.9948 135.721 50.9948V51.9948C136.302 51.9948 136.83 51.8492 137.208 51.4703C137.587 51.0915 137.733 50.5638 137.733 49.9828H136.733ZM137.233 41.7708H144.217V40.7708H137.233V41.7708ZM144.217 41.7708C145.807 41.7708 147.056 41.4942 147.76 40.7745L147.046 40.075C146.646 40.4833 145.771 40.7708 144.217 40.7708V41.7708ZM147.756 40.7783C148.471 40.0637 148.749 38.8202 148.749 37.2388H147.749C147.749 38.7774 147.463 39.6578 147.049 40.0712L147.756 40.7783ZM148.749 37.2388V33.0988H147.749V37.2388H148.749ZM148.749 33.0988C148.749 31.5086 148.472 30.2598 147.753 29.5554L147.053 30.2701C147.461 30.6697 147.749 31.5449 147.749 33.0988H148.749ZM147.76 29.563C147.056 28.8433 145.807 28.5668 144.217 28.5668V29.5668C145.771 29.5668 146.646 29.8542 147.046 30.2625L147.76 29.563ZM144.217 28.5668H142.849V29.5668H144.217V28.5668ZM142.849 28.5668C141.311 28.5668 139.96 28.7511 138.804 29.1319L139.117 30.0816C140.146 29.7425 141.387 29.5668 142.849 29.5668V28.5668ZM138.804 29.1319C137.625 29.5206 136.817 30.2063 136.734 31.2784L137.731 31.3551C137.769 30.8672 138.112 30.413 139.117 30.0816L138.804 29.1319ZM136.733 31.3168V41.2708H137.733V31.3168H136.733ZM172.248 27.9688H171.748V29.1923L172.605 28.3189L172.248 27.9688ZM184.56 27.7708L184.914 27.4172L184.56 27.7708ZM184.56 42.5668L184.914 42.9203L184.916 42.9185L184.56 42.5668ZM172.248 42.3868L172.602 42.0332L171.748 41.1797V42.3868H172.248ZM182.418 40.4248L182.061 40.075L182.061 40.075L182.418 40.4248ZM182.4 29.9128L182.047 30.2664L182.055 30.2738L182.4 29.9128ZM173.868 29.6788L174.041 30.1482L174.045 30.1465L173.868 29.6788ZM173.868 40.6588L173.692 41.1265L173.868 40.6588ZM170.736 43.7948C170.31 43.7948 170.081 43.6884 169.956 43.5632C169.831 43.4381 169.724 43.2097 169.724 42.7828H168.724C168.724 43.3638 168.87 43.8915 169.249 44.2703C169.628 44.6492 170.155 44.7948 170.736 44.7948V43.7948ZM169.724 42.7828V20.4628H168.724V42.7828H169.724ZM169.724 20.4628C169.724 20.0358 169.831 19.8075 169.956 19.6823C170.081 19.5572 170.31 19.4508 170.736 19.4508V18.4508C170.155 18.4508 169.628 18.5964 169.249 18.9752C168.87 19.3541 168.724 19.8817 168.724 20.4628H169.724ZM170.736 19.4508C171.163 19.4508 171.392 19.5572 171.517 19.6823C171.642 19.8075 171.748 20.0358 171.748 20.4628H172.748C172.748 19.8817 172.603 19.3541 172.224 18.9752C171.845 18.5964 171.318 18.4508 170.736 18.4508V19.4508ZM171.748 20.4628V27.9688H172.748V20.4628H171.748ZM172.605 28.3189C173.169 27.744 173.881 27.3028 174.752 27.0013L174.425 26.0563C173.424 26.4027 172.576 26.9215 171.892 27.6186L172.605 28.3189ZM174.752 27.0013C175.624 26.6995 176.658 26.5428 177.864 26.5428V25.5428C176.575 25.5428 175.425 25.71 174.425 26.0563L174.752 27.0013ZM177.864 26.5428H179.232V25.5428H177.864V26.5428ZM179.232 26.5428C181.562 26.5428 183.185 27.1025 184.207 28.1243L184.914 27.4172C183.632 26.135 181.703 25.5428 179.232 25.5428V26.5428ZM184.207 28.1243C185.229 29.1461 185.788 30.7689 185.788 33.0988H186.788C186.788 30.6286 186.196 28.6994 184.914 27.4172L184.207 28.1243ZM185.788 33.0988V37.2388H186.788V33.0988H185.788ZM185.788 37.2388C185.788 39.5553 185.229 41.1802 184.205 42.2151L184.916 42.9185C186.196 41.6254 186.788 39.6983 186.788 37.2388H185.788ZM184.207 42.2132C183.185 43.235 181.562 43.7948 179.232 43.7948V44.7948C181.703 44.7948 183.632 44.2025 184.914 42.9203L184.207 42.2132ZM179.232 43.7948H177.864V44.7948H179.232V43.7948ZM177.864 43.7948C176.658 43.7948 175.624 43.638 174.752 43.3363L174.425 44.2813C175.425 44.6275 176.575 44.7948 177.864 44.7948V43.7948ZM174.752 43.3363C173.879 43.034 173.166 42.5975 172.602 42.0332L171.895 42.7403C172.579 43.4241 173.426 43.9356 174.425 44.2813L174.752 43.3363ZM171.748 42.3868V42.7828H172.748V42.3868H171.748ZM171.748 42.7828C171.748 43.2097 171.642 43.4381 171.517 43.5632C171.392 43.6884 171.163 43.7948 170.736 43.7948V44.7948C171.318 44.7948 171.845 44.6492 172.224 44.2703C172.603 43.8915 172.748 43.3638 172.748 42.7828H171.748ZM177.864 41.7708H179.232V40.7708H177.864V41.7708ZM179.232 41.7708C180.823 41.7708 182.071 41.4942 182.776 40.7745L182.061 40.075C181.662 40.4833 180.786 40.7708 179.232 40.7708V41.7708ZM182.776 40.7746C183.485 40.0498 183.764 38.8113 183.764 37.2388H182.764C182.764 38.7622 182.48 39.6477 182.061 40.075L182.776 40.7746ZM183.764 37.2388V33.0988H182.764V37.2388H183.764ZM183.764 33.0988C183.764 31.5068 183.481 30.2561 182.746 29.5518L182.055 30.2738C182.472 30.6735 182.764 31.5467 182.764 33.0988H183.764ZM182.754 29.5592C182.04 28.8451 180.803 28.5668 179.232 28.5668V29.5668C180.758 29.5668 181.633 29.8524 182.047 30.2663L182.754 29.5592ZM179.232 28.5668H177.864V29.5668H179.232V28.5668ZM177.864 28.5668C176.241 28.5668 174.845 28.7754 173.692 29.211L174.045 30.1465C175.052 29.7662 176.32 29.5668 177.864 29.5668V28.5668ZM173.696 29.2093C173.106 29.4256 172.618 29.7202 172.275 30.1166C171.924 30.5226 171.748 31.0089 171.748 31.5508H172.748C172.748 31.2407 172.843 30.9889 173.032 30.771C173.228 30.5434 173.55 30.3279 174.041 30.1482L173.696 29.2093ZM171.748 31.5508V38.7868H172.748V31.5508H171.748ZM171.748 38.7868C171.748 39.3246 171.925 39.8073 172.275 40.212C172.617 40.6069 173.103 40.9042 173.692 41.1265L174.045 40.191C173.554 40.0053 173.23 39.7866 173.032 39.5576C172.842 39.3382 172.748 39.089 172.748 38.7868H171.748ZM173.692 41.1265C174.845 41.5622 176.241 41.7708 177.864 41.7708V40.7708C176.32 40.7708 175.052 40.5714 174.045 40.191L173.692 41.1265ZM193.838 50.1808L193.482 50.5318L193.482 50.5319L193.838 50.1808ZM195.98 48.0388L195.618 48.3844L195.619 48.3847L195.98 48.0388ZM206.474 48.0388L206.12 47.6851L206.113 47.6928L206.474 48.0388ZM206.888 41.7028H207.388V40.0514L206.472 41.4254L206.888 41.7028ZM204.368 43.8088L204.208 43.335L204.206 43.3356L204.368 43.8088ZM194.252 42.6028L193.898 42.9563L194.252 42.6028ZM196.394 40.4608L196.04 40.8143L196.044 40.8182L196.394 40.4608ZM205.556 40.3168L205.847 40.7233L205.851 40.7207L205.556 40.3168ZM208.616 50.1808L208.262 49.8272L208.26 49.8297L208.616 50.1808ZM197.744 50.9948C196.081 50.9948 194.931 50.5767 194.194 49.8297L193.482 50.5319C194.473 51.5368 195.926 51.9948 197.744 51.9948V50.9948ZM194.194 49.8297C193.468 49.0933 193.06 47.9406 193.06 46.2748H192.06C192.06 48.0889 192.504 49.5402 193.482 50.5318L194.194 49.8297ZM193.06 46.2748C193.06 45.8478 193.166 45.6195 193.291 45.4943C193.416 45.3692 193.645 45.2628 194.072 45.2628V44.2628C193.491 44.2628 192.963 44.4084 192.584 44.7872C192.205 45.1661 192.06 45.6937 192.06 46.2748H193.06ZM194.072 45.2628C194.499 45.2628 194.727 45.3692 194.852 45.4943C194.977 45.6195 195.084 45.8478 195.084 46.2748H196.084C196.084 45.6937 195.938 45.1661 195.559 44.7872C195.18 44.4084 194.653 44.2628 194.072 44.2628V45.2628ZM195.084 46.2748C195.084 46.7454 195.118 47.1574 195.195 47.5003C195.27 47.8363 195.397 48.153 195.618 48.3844L196.341 47.6932C196.298 47.6485 196.227 47.5332 196.171 47.2812C196.116 47.0361 196.084 46.7041 196.084 46.2748H195.084ZM195.619 48.3847C195.848 48.6242 196.167 48.7647 196.509 48.8484C196.856 48.9334 197.271 48.9708 197.744 48.9708V47.9708C197.316 47.9708 196.988 47.9362 196.747 47.8771C196.501 47.8169 196.387 47.7413 196.341 47.6928L195.619 48.3847ZM197.744 48.9708H204.728V47.9708H197.744V48.9708ZM204.728 48.9708C205.195 48.9708 205.606 48.9333 205.95 48.8481C206.29 48.7641 206.606 48.6233 206.835 48.3847L206.113 47.6928C206.065 47.7423 205.952 47.8175 205.71 47.8774C205.472 47.9362 205.149 47.9708 204.728 47.9708V48.9708ZM206.827 48.3923C207.058 48.1618 207.191 47.844 207.271 47.505C207.352 47.1601 207.388 46.7464 207.388 46.2748H206.388C206.388 46.7031 206.355 47.0334 206.298 47.2765C206.239 47.5256 206.166 47.6398 206.12 47.6852L206.827 48.3923ZM207.388 46.2748V41.7028H206.388V46.2748H207.388ZM206.472 41.4254C205.796 42.4396 205.037 43.0552 204.208 43.335L204.528 44.2825C205.619 43.9143 206.54 43.126 207.304 41.9801L206.472 41.4254ZM204.206 43.3356C203.316 43.6399 202.339 43.7948 201.272 43.7948V44.7948C202.437 44.7948 203.524 44.6256 204.529 44.2819L204.206 43.3356ZM201.272 43.7948H199.508V44.7948H201.272V43.7948ZM199.508 43.7948C197.2 43.7948 195.602 43.2461 194.605 42.2492L193.898 42.9563C195.157 44.2154 197.063 44.7948 199.508 44.7948V43.7948ZM194.605 42.2492C193.608 41.2515 193.06 39.6648 193.06 37.3828H192.06C192.06 39.8048 192.64 41.698 193.898 42.9563L194.605 42.2492ZM193.06 37.3828V27.5548H192.06V37.3828H193.06ZM193.06 27.5548C193.06 27.1278 193.166 26.8995 193.291 26.7743C193.416 26.6492 193.645 26.5428 194.072 26.5428V25.5428C193.491 25.5428 192.963 25.6884 192.584 26.0672C192.205 26.4461 192.06 26.9737 192.06 27.5548H193.06ZM194.072 26.5428C194.499 26.5428 194.727 26.6492 194.852 26.7743C194.977 26.8995 195.084 27.1278 195.084 27.5548H196.084C196.084 26.9737 195.938 26.4461 195.559 26.0672C195.18 25.6884 194.653 25.5428 194.072 25.5428V26.5428ZM195.084 27.5548V37.3828H196.084V27.5548H195.084ZM195.084 37.3828C195.084 38.9141 195.349 40.123 196.04 40.8143L196.747 40.1072C196.359 39.7186 196.084 38.8755 196.084 37.3828H195.084ZM196.044 40.8182C196.747 41.5054 197.964 41.7708 199.508 41.7708V40.7708C198.004 40.7708 197.145 40.4962 196.743 40.1034L196.044 40.8182ZM199.508 41.7708H201.272V40.7708H199.508V41.7708ZM201.272 41.7708C203.271 41.7708 204.829 41.4521 205.847 40.7233L205.265 39.9103C204.506 40.4535 203.209 40.7708 201.272 40.7708V41.7708ZM205.851 40.7207C206.893 39.96 207.388 38.8161 207.388 37.3828H206.388C206.388 38.5654 205.995 39.3776 205.261 39.9129L205.851 40.7207ZM207.388 37.3828V27.5548H206.388V37.3828H207.388ZM207.388 27.5548C207.388 27.1278 207.494 26.8995 207.619 26.7743C207.744 26.6492 207.973 26.5428 208.4 26.5428V25.5428C207.819 25.5428 207.291 25.6884 206.912 26.0672C206.533 26.4461 206.388 26.9737 206.388 27.5548H207.388ZM208.4 26.5428C208.827 26.5428 209.055 26.6492 209.18 26.7743C209.305 26.8995 209.412 27.1278 209.412 27.5548H210.412C210.412 26.9737 210.266 26.4461 209.887 26.0672C209.508 25.6884 208.981 25.5428 208.4 25.5428V26.5428ZM209.412 27.5548V46.2748H210.412V27.5548H209.412ZM209.412 46.2748C209.412 47.9389 208.999 49.0906 208.262 49.8272L208.969 50.5343C209.961 49.5429 210.412 48.0907 210.412 46.2748H209.412ZM208.26 49.8297C207.522 50.5773 206.377 50.9948 204.728 50.9948V51.9948C206.535 51.9948 207.981 51.5362 208.972 50.5319L208.26 49.8297ZM204.728 50.9948H197.744V51.9948H204.728V50.9948ZM229.375 43.3588L229.084 43.7653L229.087 43.7679L229.375 43.3588ZM227.665 40.5148L227.172 40.597L227.173 40.6049L227.175 40.6128L227.665 40.5148ZM227.953 39.3268L227.599 38.9731L227.592 38.9808L227.953 39.3268ZM230.203 39.2728L229.823 39.5982L229.832 39.6079L229.84 39.6171L230.203 39.2728ZM230.761 40.3708L230.281 40.5112L230.288 40.5342L230.297 40.5565L230.761 40.3708ZM231.481 41.0908L231.313 41.5617L231.318 41.5635L231.481 41.0908ZM240.787 40.8208L241.127 41.1877L241.134 41.1809L240.787 40.8208ZM240.787 36.9868L241.134 36.6266V36.6266L240.787 36.9868ZM229.195 35.2048L228.841 35.5583L229.195 35.2048ZM229.159 27.3568L228.803 27.0057L228.803 27.0057L229.159 27.3568ZM243.721 29.6068L244.212 29.5132L244.209 29.5007L243.721 29.6068ZM243.433 30.7768L243.087 30.4158L243.087 30.4158L243.433 30.7768ZM241.201 30.8308L240.83 31.1663L240.838 31.1751L241.201 30.8308ZM240.661 29.7868L241.14 29.6443L241.128 29.6023L241.108 29.5632L240.661 29.7868ZM239.995 29.2108L239.837 29.6851L239.842 29.687L239.995 29.2108ZM231.337 33.0448L230.976 33.3911L230.983 33.3983L231.337 33.0448ZM242.947 34.8448L243.3 34.4912L242.947 34.8448ZM242.947 42.9628L243.298 43.3187L243.3 43.3163L242.947 42.9628ZM232.993 43.7948C231.532 43.7948 230.438 43.495 229.662 42.9497L229.087 43.7679C230.087 44.4706 231.406 44.7948 232.993 44.7948V43.7948ZM229.666 42.9523C228.899 42.4029 228.387 41.5757 228.155 40.4167L227.175 40.6128C227.447 41.9738 228.075 43.0426 229.084 43.7653L229.666 42.9523ZM228.158 40.4326C228.092 40.036 228.177 39.8157 228.314 39.6727L227.592 38.9808C227.177 39.4138 227.07 39.9855 227.172 40.597L228.158 40.4326ZM228.306 39.6803C228.479 39.5073 228.736 39.3948 229.141 39.3948V38.3948C228.538 38.3948 228.002 38.5702 227.599 38.9732L228.306 39.6803ZM229.141 39.3948C229.559 39.3948 229.741 39.5018 229.823 39.5982L230.582 38.9474C230.233 38.5398 229.707 38.3948 229.141 38.3948V39.3948ZM229.84 39.6171C229.992 39.7764 230.148 40.0576 230.281 40.5112L231.241 40.2303C231.085 39.6999 230.87 39.2492 230.565 38.9284L229.84 39.6171ZM230.297 40.5565C230.489 41.0366 230.829 41.3889 231.313 41.5616L231.649 40.6199C231.461 40.5526 231.321 40.425 231.225 40.1851L230.297 40.5565ZM231.318 41.5635C231.744 41.7105 232.314 41.7708 232.993 41.7708V40.7708C232.352 40.7708 231.913 40.711 231.644 40.6181L231.318 41.5635ZM232.993 41.7708H238.897V40.7708H232.993V41.7708ZM238.897 41.7708C239.388 41.7708 239.822 41.7317 240.187 41.6447C240.549 41.5584 240.879 41.4171 241.127 41.1876L240.447 40.4539C240.371 40.5244 240.223 40.6081 239.956 40.6719C239.691 40.7348 239.341 40.7708 238.897 40.7708V41.7708ZM241.134 41.1809C241.388 40.9364 241.542 40.5991 241.636 40.2276C241.731 39.8527 241.773 39.4047 241.773 38.8948H240.773C240.773 39.3568 240.734 39.7158 240.667 39.9829C240.598 40.2535 240.51 40.3932 240.44 40.4606L241.134 41.1809ZM241.773 38.8948C241.773 38.3905 241.731 37.9466 241.636 37.5744C241.542 37.2051 241.387 36.8703 241.134 36.6266L240.44 37.3469C240.511 37.4152 240.599 37.5544 240.667 37.8212C240.734 38.085 240.773 38.4391 240.773 38.8948H241.773ZM241.134 36.6266C240.886 36.3886 240.556 36.2407 240.192 36.1504C239.824 36.0595 239.389 36.0188 238.897 36.0188V37.0188C239.341 37.0188 239.689 37.0561 239.951 37.1211C240.216 37.1868 240.363 37.273 240.44 37.3469L241.134 36.6266ZM238.897 36.0188H233.101V37.0188H238.897V36.0188ZM233.101 36.0188C231.452 36.0188 230.299 35.6015 229.548 34.8512L228.841 35.5583C229.843 36.56 231.293 37.0188 233.101 37.0188V36.0188ZM229.548 34.8512C228.798 34.1009 228.381 32.9474 228.381 31.2988H227.381C227.381 33.1062 227.84 34.5567 228.841 35.5583L229.548 34.8512ZM228.381 31.2988C228.381 29.6066 228.79 28.4431 229.515 27.7078L228.803 27.0057C227.824 27.9985 227.381 29.4629 227.381 31.2988H228.381ZM229.515 27.7079C230.251 26.962 231.412 26.5428 233.101 26.5428V25.5428C231.262 25.5428 229.795 25.9996 228.803 27.0057L229.515 27.7079ZM233.101 26.5428H238.717V25.5428H233.101V26.5428ZM238.717 26.5428C240.061 26.5428 241.07 26.8263 241.793 27.341C242.507 27.8497 242.995 28.6224 243.232 29.7129L244.209 29.5007C243.93 28.2152 243.327 27.2058 242.373 26.5265C241.428 25.8532 240.193 25.5428 238.717 25.5428V26.5428ZM243.23 29.7003C243.304 30.0917 243.218 30.2903 243.087 30.4158L243.779 31.1378C244.224 30.7112 244.329 30.1298 244.212 29.5132L243.23 29.7003ZM243.087 30.4158C242.915 30.5807 242.655 30.6908 242.245 30.6908V31.6908C242.842 31.6908 243.375 31.5248 243.779 31.1378L243.087 30.4158ZM242.245 30.6908C241.856 30.6908 241.663 30.5917 241.563 30.4864L240.838 31.1751C241.194 31.5498 241.698 31.6908 242.245 31.6908V30.6908ZM241.572 30.4953C241.409 30.315 241.258 30.0413 241.14 29.6443L240.182 29.9293C240.328 30.4203 240.537 30.8425 240.83 31.1662L241.572 30.4953ZM241.108 29.5632C240.905 29.1577 240.579 28.8726 240.147 28.7346L239.842 29.687C240.011 29.7409 240.128 29.8398 240.214 30.0104L241.108 29.5632ZM240.153 28.7364C239.787 28.6146 239.297 28.5668 238.717 28.5668V29.5668C239.265 29.5668 239.626 29.6149 239.837 29.6851L240.153 28.7364ZM238.717 28.5668H233.101V29.5668H238.717V28.5668ZM233.101 28.5668C232.624 28.5668 232.206 28.6025 231.858 28.6832C231.517 28.7625 231.197 28.8958 230.965 29.1272L231.672 29.8343C231.717 29.7898 231.832 29.7161 232.084 29.6573C232.331 29.6 232.666 29.5668 233.101 29.5668V28.5668ZM230.965 29.1272C230.732 29.3604 230.599 29.686 230.521 30.0312C230.44 30.384 230.405 30.8102 230.405 31.2988H231.405C231.405 30.8514 231.438 30.5065 231.496 30.2533C231.555 29.9926 231.63 29.8771 231.672 29.8343L230.965 29.1272ZM230.405 31.2988C230.405 31.7551 230.443 32.16 230.527 32.5034C230.612 32.8441 230.751 33.156 230.976 33.391L231.698 32.6985C231.635 32.6335 231.558 32.5045 231.498 32.2632C231.439 32.0245 231.405 31.7064 231.405 31.2988H230.405ZM230.983 33.3983C231.218 33.6334 231.534 33.7786 231.879 33.8668C232.227 33.9555 232.638 33.9948 233.101 33.9948V32.9948C232.688 32.9948 232.367 32.959 232.126 32.8978C231.884 32.836 231.755 32.7561 231.69 32.6912L230.983 33.3983ZM233.101 33.9948H238.897V32.9948H233.101V33.9948ZM238.897 33.9948C240.62 33.9948 241.82 34.4252 242.593 35.1983L243.3 34.4912C242.274 33.4644 240.774 32.9948 238.897 32.9948V33.9948ZM242.593 35.1983C243.366 35.9715 243.797 37.1718 243.797 38.8948H244.797C244.797 37.0177 244.327 35.5181 243.3 34.4912L242.593 35.1983ZM243.797 38.8948C243.797 40.6308 243.366 41.8366 242.593 42.6092L243.3 43.3163C244.328 42.2889 244.797 40.7827 244.797 38.8948H243.797ZM242.596 42.6068C241.823 43.3695 240.621 43.7948 238.897 43.7948V44.7948C240.772 44.7948 242.271 44.3321 243.298 43.3187L242.596 42.6068ZM238.897 43.7948H232.993V44.7948H238.897V43.7948ZM251.473 29.0668H251.973V28.5668H251.473V29.0668ZM251.473 26.0428V26.5428H251.973V26.0428H251.473ZM254.497 26.0428H253.997V26.5428H254.497V26.0428ZM254.497 29.0668V28.5668H253.997V29.0668H254.497ZM255.325 40.4788L254.975 40.8362L254.979 40.8401L255.325 40.4788ZM259.519 41.6308L259.182 42.0008L259.191 42.0081L259.519 41.6308ZM258.421 43.7948C256.113 43.7948 254.515 43.2461 253.518 42.2492L252.811 42.9563C254.07 44.2154 255.976 44.7948 258.421 44.7948V43.7948ZM253.518 42.2492C252.521 41.2515 251.973 39.6648 251.973 37.3828H250.973C250.973 39.8048 251.553 41.698 252.811 42.9563L253.518 42.2492ZM251.973 37.3828V29.0668H250.973V37.3828H251.973ZM251.473 28.5668H249.709V29.5668H251.473V28.5668ZM249.709 28.5668C249.282 28.5668 249.053 28.4604 248.928 28.3352C248.803 28.2101 248.697 27.9817 248.697 27.5548H247.697C247.697 28.1358 247.842 28.6635 248.221 29.0423C248.6 29.4212 249.128 29.5668 249.709 29.5668V28.5668ZM248.697 27.5548C248.697 27.1278 248.803 26.8995 248.928 26.7743C249.053 26.6492 249.282 26.5428 249.709 26.5428V25.5428C249.128 25.5428 248.6 25.6884 248.221 26.0672C247.842 26.4461 247.697 26.9737 247.697 27.5548H248.697ZM249.709 26.5428H251.473V25.5428H249.709V26.5428ZM251.973 26.0428V23.4148H250.973V26.0428H251.973ZM251.973 23.4148C251.973 22.9878 252.079 22.7595 252.204 22.6343C252.329 22.5092 252.558 22.4028 252.985 22.4028V21.4028C252.404 21.4028 251.876 21.5484 251.497 21.9272C251.118 22.3061 250.973 22.8337 250.973 23.4148H251.973ZM252.985 22.4028C253.412 22.4028 253.64 22.5092 253.765 22.6343C253.89 22.7595 253.997 22.9878 253.997 23.4148H254.997C254.997 22.8337 254.851 22.3061 254.472 21.9272C254.093 21.5484 253.566 21.4028 252.985 21.4028V22.4028ZM253.997 23.4148V26.0428H254.997V23.4148H253.997ZM254.497 26.5428H258.637V25.5428H254.497V26.5428ZM258.637 26.5428C259.064 26.5428 259.292 26.6492 259.417 26.7743C259.542 26.8995 259.649 27.1278 259.649 27.5548H260.649C260.649 26.9737 260.503 26.4461 260.124 26.0672C259.745 25.6884 259.218 25.5428 258.637 25.5428V26.5428ZM259.649 27.5548C259.649 27.9817 259.542 28.2101 259.417 28.3352C259.292 28.4604 259.064 28.5668 258.637 28.5668V29.5668C259.218 29.5668 259.745 29.4212 260.124 29.0423C260.503 28.6635 260.649 28.1358 260.649 27.5548H259.649ZM258.637 28.5668H254.497V29.5668H258.637V28.5668ZM253.997 29.0668V37.3828H254.997V29.0668H253.997ZM253.997 37.3828C253.997 38.9265 254.268 40.1444 254.975 40.8362L255.674 40.1214C255.278 39.7332 254.997 38.887 254.997 37.3828H253.997ZM254.979 40.8401C255.681 41.5114 256.889 41.7708 258.421 41.7708V40.7708C256.928 40.7708 256.072 40.5021 255.67 40.1174L254.979 40.8401ZM258.421 41.7708C258.804 41.7708 259.036 41.8678 259.182 42.0007L259.855 41.2608C259.473 40.9138 258.973 40.7708 258.421 40.7708V41.7708ZM259.191 42.0081C259.316 42.1171 259.433 42.3336 259.433 42.7828H260.433C260.433 42.1759 260.273 41.6245 259.847 41.2535L259.191 42.0081ZM259.433 42.7828C259.433 43.2097 259.326 43.4381 259.201 43.5632C259.076 43.6884 258.848 43.7948 258.421 43.7948V44.7948C259.002 44.7948 259.529 44.6492 259.908 44.2703C260.287 43.8915 260.433 43.3638 260.433 42.7828H259.433ZM266.517 36.4108V35.9108H266.017V36.4108H266.517ZM267.363 40.4428L267.01 40.7963L267.014 40.8001L267.363 40.4428ZM276.219 40.9288L276.4 41.395L276.219 40.9288ZM277.389 39.7228L277.864 39.8809L277.867 39.8714L277.87 39.8618L277.389 39.7228ZM277.929 38.6788L277.576 38.3251L277.567 38.3344L277.929 38.6788ZM280.161 38.7148L280.515 38.3612L280.161 38.7148ZM280.413 39.8668L279.922 39.7732L279.921 39.7794L280.413 39.8668ZM265.221 42.5668L264.868 42.9203L264.87 42.9221L265.221 42.5668ZM265.221 27.7348L265.573 28.0902L265.573 28.0901L265.221 27.7348ZM270.549 26.0428L270.544 26.5428H270.549V26.0428ZM278.829 27.7708L278.476 28.1243L278.478 28.1262L278.829 27.7708ZM270.549 29.0668L270.542 29.5668H270.549V29.0668ZM267.363 29.8768L267.01 29.5232L267.363 29.8768ZM266.517 33.3868H266.017V33.8868H266.517V33.3868ZM277.533 33.3868V33.8868H278.033V33.3868H277.533ZM276.687 29.9128L276.33 30.2626L276.338 30.2701L276.687 29.9128ZM266.017 36.4108V37.2748H267.017V36.4108H266.017ZM266.017 37.2748C266.017 38.8455 266.296 40.0822 267.01 40.7963L267.717 40.0892C267.303 39.6753 267.017 38.8 267.017 37.2748H266.017ZM267.014 40.8001C267.728 41.4995 268.97 41.7708 270.549 41.7708V40.7708C269.009 40.7708 268.126 40.4901 267.713 40.0854L267.014 40.8001ZM270.549 41.7708H273.501V40.7708H270.549V41.7708ZM273.501 41.7708C274.74 41.7708 275.723 41.6576 276.4 41.395L276.039 40.4626C275.54 40.6559 274.71 40.7708 273.501 40.7708V41.7708ZM276.4 41.395C277.121 41.1155 277.622 40.6043 277.864 39.8809L276.915 39.5647C276.772 39.9932 276.494 40.286 276.039 40.4626L276.4 41.395ZM277.87 39.8618C277.988 39.4515 278.138 39.1854 278.292 39.0231L277.567 38.3344C277.265 38.6521 277.054 39.082 276.909 39.5837L277.87 39.8618ZM278.283 39.0323C278.396 38.9192 278.606 38.8188 279.009 38.8188V37.8188C278.452 37.8188 277.943 37.9584 277.576 38.3252L278.283 39.0323ZM279.009 38.8188C279.428 38.8188 279.667 38.9272 279.808 39.0683L280.515 38.3612C280.128 37.9744 279.598 37.8188 279.009 37.8188V38.8188ZM279.808 39.0683C279.914 39.1744 280 39.3654 279.922 39.7732L280.904 39.9603C281.019 39.3601 280.937 38.7831 280.515 38.3612L279.808 39.0683ZM279.921 39.7794C279.679 41.1458 279.041 42.1265 278.021 42.7748L278.557 43.6188C279.841 42.8031 280.62 41.5637 280.906 39.9541L279.921 39.7794ZM278.021 42.7748C276.98 43.4365 275.49 43.7948 273.501 43.7948V44.7948C275.592 44.7948 277.295 44.421 278.557 43.6188L278.021 42.7748ZM273.501 43.7948H270.549V44.7948H273.501V43.7948ZM270.549 43.7948C268.233 43.7948 266.608 43.2356 265.573 42.2114L264.87 42.9221C266.163 44.2019 268.09 44.7948 270.549 44.7948V43.7948ZM265.575 42.2132C264.552 41.1906 263.993 39.5789 263.993 37.2748H262.993C262.993 39.7226 263.586 41.6389 264.868 42.9203L265.575 42.2132ZM263.993 37.2748V33.0988H262.993V37.2748H263.993ZM263.993 33.0988C263.993 30.7299 264.554 29.0981 265.573 28.0902L264.87 27.3794C263.584 28.6515 262.993 30.5957 262.993 33.0988H263.993ZM265.573 28.0901C266.606 27.0677 268.229 26.5195 270.544 26.5427L270.554 25.5428C268.094 25.5181 266.165 26.0978 264.87 27.3794L265.573 28.0901ZM270.549 26.5428H273.501V25.5428H270.549V26.5428ZM273.501 26.5428C275.831 26.5428 277.454 27.1025 278.476 28.1243L279.183 27.4172C277.901 26.135 275.971 25.5428 273.501 25.5428V26.5428ZM278.478 28.1262C279.497 29.1348 280.057 30.7556 280.057 33.0988H281.057C281.057 30.618 280.466 28.6867 279.181 27.4154L278.478 28.1262ZM280.057 33.0988V34.8988H281.057V33.0988H280.057ZM280.057 34.8988C280.057 35.3257 279.951 35.5541 279.826 35.6792C279.701 35.8044 279.472 35.9108 279.045 35.9108V36.9108C279.626 36.9108 280.154 36.7652 280.533 36.3863C280.912 36.0075 281.057 35.4798 281.057 34.8988H280.057ZM279.045 35.9108H266.517V36.9108H279.045V35.9108ZM270.557 28.5668C268.976 28.5425 267.728 28.8053 267.01 29.5232L267.717 30.2303C268.127 29.8202 269.003 29.543 270.542 29.5667L270.557 28.5668ZM267.01 29.5232C266.294 30.2388 266.017 31.496 266.017 33.0988H267.017C267.017 31.5335 267.304 30.6428 267.717 30.2303L267.01 29.5232ZM266.017 33.0988V33.3868H267.017V33.0988H266.017ZM266.517 33.8868H277.533V32.8868H266.517V33.8868ZM278.033 33.3868V33.0988H277.033V33.3868H278.033ZM278.033 33.0988C278.033 31.5086 277.757 30.2598 277.037 29.5554L276.338 30.2701C276.746 30.6697 277.033 31.5449 277.033 33.0988H278.033ZM277.045 29.563C276.34 28.8433 275.091 28.5668 273.501 28.5668V29.5668C275.055 29.5668 275.93 29.8542 276.33 30.2625L277.045 29.563ZM273.501 28.5668H270.549V29.5668H273.501V28.5668ZM290.198 28.0048H289.698V29.2119L290.551 28.3583L290.198 28.0048ZM292.592 26.5468L292.753 27.0199L292.757 27.0187L292.592 26.5468ZM302.51 27.7708L302.863 27.4172L302.51 27.7708ZM302.51 42.5668L302.863 42.9203L302.865 42.9185L302.51 42.5668ZM290.198 44.2948V43.7948H289.698V44.2948H290.198ZM290.198 41.2708H289.698V41.7708H290.198V41.2708ZM300.368 40.4248L300.014 40.0712L300.01 40.075L300.368 40.4248ZM300.368 29.9128L300.01 30.2626L300.018 30.2701L300.368 29.9128ZM291.926 29.6068L291.769 29.1319L291.926 29.6068ZM290.198 31.3168L289.699 31.2784L289.698 31.2976V31.3168H290.198ZM288.686 50.9948C288.259 50.9948 288.03 50.8884 287.905 50.7632C287.78 50.6381 287.674 50.4097 287.674 49.9828H286.674C286.674 50.5638 286.819 51.0915 287.198 51.4703C287.577 51.8492 288.105 51.9948 288.686 51.9948V50.9948ZM287.674 49.9828V27.5548H286.674V49.9828H287.674ZM287.674 27.5548C287.674 27.1278 287.78 26.8995 287.905 26.7743C288.03 26.6492 288.259 26.5428 288.686 26.5428V25.5428C288.105 25.5428 287.577 25.6884 287.198 26.0672C286.819 26.4461 286.674 26.9737 286.674 27.5548H287.674ZM288.686 26.5428C289.113 26.5428 289.341 26.6492 289.466 26.7743C289.591 26.8995 289.698 27.1278 289.698 27.5548H290.698C290.698 26.9737 290.552 26.4461 290.173 26.0672C289.794 25.6884 289.267 25.5428 288.686 25.5428V26.5428ZM289.698 27.5548V28.0048H290.698V27.5548H289.698ZM290.551 28.3583C291.14 27.7692 291.871 27.3215 292.753 27.0199L292.43 26.0736C291.417 26.42 290.551 26.9443 289.844 27.6512L290.551 28.3583ZM292.757 27.0187C293.656 26.7041 294.673 26.5428 295.814 26.5428V25.5428C294.579 25.5428 293.448 25.7174 292.427 26.0748L292.757 27.0187ZM295.814 26.5428H297.182V25.5428H295.814V26.5428ZM297.182 26.5428C299.512 26.5428 301.134 27.1025 302.156 28.1243L302.863 27.4172C301.581 26.135 299.652 25.5428 297.182 25.5428V26.5428ZM302.156 28.1243C303.178 29.1461 303.738 30.7689 303.738 33.0988H304.738C304.738 30.6286 304.145 28.6994 302.863 27.4172L302.156 28.1243ZM303.738 33.0988V37.2388H304.738V33.0988H303.738ZM303.738 37.2388C303.738 39.5553 303.179 41.1802 302.154 42.2151L302.865 42.9185C304.145 41.6254 304.738 39.6983 304.738 37.2388H303.738ZM302.156 42.2132C301.134 43.235 299.512 43.7948 297.182 43.7948V44.7948C299.652 44.7948 301.581 44.2025 302.863 42.9203L302.156 42.2132ZM297.182 43.7948H290.198V44.7948H297.182V43.7948ZM289.698 44.2948V49.9828H290.698V44.2948H289.698ZM289.698 49.9828C289.698 50.4097 289.591 50.6381 289.466 50.7632C289.341 50.8884 289.113 50.9948 288.686 50.9948V51.9948C289.267 51.9948 289.794 51.8492 290.173 51.4703C290.552 51.0915 290.698 50.5638 290.698 49.9828H289.698ZM290.198 41.7708H297.182V40.7708H290.198V41.7708ZM297.182 41.7708C298.772 41.7708 300.021 41.4942 300.725 40.7745L300.01 40.075C299.611 40.4833 298.736 40.7708 297.182 40.7708V41.7708ZM300.721 40.7783C301.436 40.0637 301.714 38.8202 301.714 37.2388H300.714C300.714 38.7774 300.428 39.6578 300.014 40.0712L300.721 40.7783ZM301.714 37.2388V33.0988H300.714V37.2388H301.714ZM301.714 33.0988C301.714 31.5086 301.437 30.2598 300.717 29.5554L300.018 30.2701C300.426 30.6697 300.714 31.5449 300.714 33.0988H301.714ZM300.725 29.563C300.021 28.8433 298.772 28.5668 297.182 28.5668V29.5668C298.736 29.5668 299.611 29.8542 300.01 30.2625L300.725 29.563ZM297.182 28.5668H295.814V29.5668H297.182V28.5668ZM295.814 28.5668C294.276 28.5668 292.924 28.7511 291.769 29.1319L292.082 30.0816C293.111 29.7425 294.352 29.5668 295.814 29.5668V28.5668ZM291.769 29.1319C290.59 29.5206 289.782 30.2063 289.699 31.2784L290.696 31.3551C290.734 30.8672 291.077 30.413 292.082 30.0816L291.769 29.1319ZM289.698 31.3168V41.2708H290.698V31.3168H289.698Z" fill="#333333" mask="url(#path-3-outside-1_1_17)"/>
</svg>
