<svg width="296" height="48" viewBox="0 0 296 48" fill="none" xmlns="http://www.w3.org/2000/svg">
<path d="M20.0296 0H15.0222V5.33333H10.0148V10.6667H15.0222V5.33333H20.0296V10.6667H25.037V16H20.0296V21.3333H15.0222V26.6667H10.0148V32H5.00741V26.6667H0V32H5.00741V37.3333H10.0148V32H20.0296V37.3333H25.037V42.6667H20.0296V48H25.037V42.6667H30.0444V37.3333H25.037V26.6667H30.0444V21.3333H35.0518V26.6667H40.0593V32H45.0667V26.6667H50.0741V21.3333H45.0667V26.6667H40.0593V21.3333H35.0518V16H40.0593V5.33333H30.0444V10.6667H25.037V5.33333H20.0296V0Z" fill="#735184"/>
<path d="M23.0296 0H18.0222V5.33333H13.0148V10.6667H18.0222V5.33333H23.0296V10.6667H28.037V16H23.0296V21.3333H18.0222V26.6667H13.0148V32H8.00741V26.6667H3V32H8.00741V37.3333H13.0148V32H23.0296V37.3333H28.037V42.6667H23.0296V48H28.037V42.6667H33.0444V37.3333H28.037V26.6667H33.0444V21.3333H38.0518V26.6667H43.0593V32H48.0667V26.6667H53.0741V21.3333H48.0667V26.6667H43.0593V21.3333H38.0518V16H43.0593V5.33333H33.0444V10.6667H28.037V5.33333H23.0296V0Z" fill="#E2E2E2"/>
<path d="M68.028 37C66.504 37 65.298 36.688 64.41 36.064C63.522 35.428 62.952 34.48 62.7 33.22C62.616 32.716 62.712 32.32 62.988 32.032C63.276 31.744 63.672 31.6 64.176 31.6C64.668 31.6 65.022 31.726 65.238 31.978C65.466 32.218 65.652 32.584 65.796 33.076C65.94 33.436 66.18 33.676 66.516 33.796C66.864 33.916 67.368 33.976 68.028 33.976H73.932C74.868 33.976 75.498 33.826 75.822 33.526C76.146 33.214 76.308 32.572 76.308 31.6C76.308 30.64 76.146 30.004 75.822 29.692C75.498 29.38 74.868 29.224 73.932 29.224H68.136C66.408 29.224 65.106 28.786 64.23 27.91C63.354 27.034 62.916 25.732 62.916 24.004C62.916 22.24 63.342 20.926 64.194 20.062C65.058 19.186 66.372 18.748 68.136 18.748H73.752C76.572 18.748 78.24 19.936 78.756 22.312C78.852 22.816 78.756 23.206 78.468 23.482C78.18 23.758 77.784 23.896 77.28 23.896C76.812 23.896 76.464 23.776 76.236 23.536C76.008 23.284 75.828 22.936 75.696 22.492C75.552 22.204 75.33 22.012 75.03 21.916C74.742 21.82 74.316 21.772 73.752 21.772H68.136C67.224 21.772 66.63 21.91 66.354 22.186C66.078 22.462 65.94 23.068 65.94 24.004C65.94 24.868 66.084 25.45 66.372 25.75C66.672 26.05 67.26 26.2 68.136 26.2H73.932C75.732 26.2 77.082 26.65 77.982 27.55C78.882 28.45 79.332 29.8 79.332 31.6C79.332 33.412 78.882 34.768 77.982 35.668C77.082 36.556 75.732 37 73.932 37H68.028ZM93.4558 37C91.0798 37 89.3278 36.436 88.1998 35.308C87.0718 34.18 86.5078 32.44 86.5078 30.088V21.772H84.7438C83.7358 21.772 83.2318 21.268 83.2318 20.26C83.2318 19.252 83.7358 18.748 84.7438 18.748H86.5078V16.12C86.5078 15.112 87.0118 14.608 88.0198 14.608C89.0278 14.608 89.5318 15.112 89.5318 16.12V18.748H93.6718C94.6798 18.748 95.1838 19.252 95.1838 20.26C95.1838 21.268 94.6798 21.772 93.6718 21.772H89.5318V30.088C89.5318 31.612 89.8078 32.644 90.3598 33.184C90.9118 33.712 91.9438 33.976 93.4558 33.976C93.9238 33.976 94.2898 34.096 94.5538 34.336C94.8298 34.576 94.9678 34.96 94.9678 35.488C94.9678 36.496 94.4638 37 93.4558 37ZM101.552 29.116V29.98C101.552 31.528 101.834 32.584 102.398 33.148C102.962 33.7 104.024 33.976 105.584 33.976H108.536C109.76 33.976 110.666 33.862 111.254 33.634C111.842 33.406 112.232 33.004 112.424 32.428C112.556 31.972 112.736 31.624 112.964 31.384C113.204 31.144 113.564 31.024 114.044 31.024C114.548 31.024 114.932 31.156 115.196 31.42C115.46 31.684 115.544 32.068 115.448 32.572C115.184 34.06 114.476 35.17 113.324 35.902C112.172 36.634 110.576 37 108.536 37H105.584C103.196 37 101.42 36.424 100.256 35.272C99.1044 34.12 98.5284 32.356 98.5284 29.98V25.804C98.5284 23.368 99.1044 21.58 100.256 20.44C101.42 19.288 103.196 18.724 105.584 18.748H108.536C110.936 18.748 112.712 19.324 113.864 20.476C115.016 21.616 115.592 23.392 115.592 25.804V27.604C115.592 28.612 115.088 29.116 114.08 29.116H101.552ZM105.584 21.772C104.024 21.748 102.962 22.018 102.398 22.582C101.834 23.146 101.552 24.22 101.552 25.804V26.092H112.568V25.804C112.568 24.232 112.286 23.17 111.722 22.618C111.17 22.054 110.108 21.772 108.536 21.772H105.584ZM123.721 44.2C122.713 44.2 122.209 43.696 122.209 42.688V20.26C122.209 19.252 122.713 18.748 123.721 18.748C124.729 18.748 125.233 19.252 125.233 20.26V20.71C125.881 20.062 126.679 19.576 127.627 19.252C128.587 18.916 129.661 18.748 130.849 18.748H132.217C134.617 18.748 136.393 19.324 137.545 20.476C138.697 21.628 139.273 23.404 139.273 25.804V29.944C139.273 32.332 138.697 34.108 137.545 35.272C136.393 36.424 134.617 37 132.217 37H125.233V42.688C125.233 43.696 124.729 44.2 123.721 44.2ZM125.233 33.976H132.217C133.789 33.976 134.851 33.694 135.403 33.13C135.967 32.566 136.249 31.504 136.249 29.944V25.804C136.249 24.232 135.967 23.17 135.403 22.618C134.851 22.054 133.789 21.772 132.217 21.772H130.849C129.349 21.772 128.053 21.952 126.961 22.312C125.869 22.672 125.293 23.242 125.233 24.022V33.976ZM158.736 37C157.728 37 157.224 36.496 157.224 35.488V13.168C157.224 12.16 157.728 11.656 158.736 11.656C159.744 11.656 160.248 12.16 160.248 13.168V20.674C160.872 20.038 161.652 19.558 162.588 19.234C163.524 18.91 164.616 18.748 165.864 18.748H167.232C169.632 18.748 171.408 19.324 172.56 20.476C173.712 21.628 174.288 23.404 174.288 25.804V29.944C174.288 32.332 173.712 34.108 172.56 35.272C171.408 36.424 169.632 37 167.232 37H165.864C164.616 37 163.524 36.838 162.588 36.514C161.652 36.19 160.872 35.716 160.248 35.092V35.488C160.248 36.496 159.744 37 158.736 37ZM165.864 33.976H167.232C168.804 33.976 169.866 33.694 170.418 33.13C170.982 32.554 171.264 31.492 171.264 29.944V25.804C171.264 24.232 170.976 23.17 170.4 22.618C169.836 22.054 168.78 21.772 167.232 21.772H165.864C164.28 21.772 162.948 21.976 161.868 22.384C160.788 22.78 160.248 23.404 160.248 24.256V31.492C160.248 32.332 160.788 32.956 161.868 33.364C162.948 33.772 164.28 33.976 165.864 33.976ZM185.744 44.2C184.004 44.2 182.702 43.762 181.838 42.886C180.986 42.022 180.56 40.72 180.56 38.98C180.56 37.972 181.064 37.468 182.072 37.468C183.08 37.468 183.584 37.972 183.584 38.98C183.584 39.88 183.716 40.468 183.98 40.744C184.256 41.032 184.844 41.176 185.744 41.176H192.728C193.616 41.176 194.198 41.032 194.474 40.744C194.75 40.468 194.888 39.88 194.888 38.98V34.408C194.168 35.488 193.328 36.19 192.368 36.514C191.42 36.838 190.388 37 189.272 37H187.508C185.132 37 183.38 36.436 182.252 35.308C181.124 34.18 180.56 32.44 180.56 30.088V20.26C180.56 19.252 181.064 18.748 182.072 18.748C183.08 18.748 183.584 19.252 183.584 20.26V30.088C183.584 31.6 183.854 32.626 184.394 33.166C184.946 33.706 185.984 33.976 187.508 33.976H189.272C191.24 33.976 192.668 33.658 193.556 33.022C194.444 32.374 194.888 31.396 194.888 30.088V20.26C194.888 19.252 195.392 18.748 196.4 18.748C197.408 18.748 197.912 19.252 197.912 20.26V38.98C197.912 40.72 197.48 42.022 196.616 42.886C195.752 43.762 194.456 44.2 192.728 44.2H185.744ZM220.993 37C219.469 37 218.263 36.688 217.375 36.064C216.487 35.428 215.917 34.48 215.665 33.22C215.581 32.716 215.677 32.32 215.953 32.032C216.241 31.744 216.637 31.6 217.141 31.6C217.633 31.6 217.987 31.726 218.203 31.978C218.431 32.218 218.617 32.584 218.761 33.076C218.905 33.436 219.145 33.676 219.481 33.796C219.829 33.916 220.333 33.976 220.993 33.976H226.897C227.833 33.976 228.463 33.826 228.787 33.526C229.111 33.214 229.273 32.572 229.273 31.6C229.273 30.64 229.111 30.004 228.787 29.692C228.463 29.38 227.833 29.224 226.897 29.224H221.101C219.373 29.224 218.071 28.786 217.195 27.91C216.319 27.034 215.881 25.732 215.881 24.004C215.881 22.24 216.307 20.926 217.159 20.062C218.023 19.186 219.337 18.748 221.101 18.748H226.717C229.537 18.748 231.205 19.936 231.721 22.312C231.817 22.816 231.721 23.206 231.433 23.482C231.145 23.758 230.749 23.896 230.245 23.896C229.777 23.896 229.429 23.776 229.201 23.536C228.973 23.284 228.793 22.936 228.661 22.492C228.517 22.204 228.295 22.012 227.995 21.916C227.707 21.82 227.281 21.772 226.717 21.772H221.101C220.189 21.772 219.595 21.91 219.319 22.186C219.043 22.462 218.905 23.068 218.905 24.004C218.905 24.868 219.049 25.45 219.337 25.75C219.637 26.05 220.225 26.2 221.101 26.2H226.897C228.697 26.2 230.047 26.65 230.947 27.55C231.847 28.45 232.297 29.8 232.297 31.6C232.297 33.412 231.847 34.768 230.947 35.668C230.047 36.556 228.697 37 226.897 37H220.993ZM246.421 37C244.045 37 242.293 36.436 241.165 35.308C240.037 34.18 239.473 32.44 239.473 30.088V21.772H237.709C236.701 21.772 236.197 21.268 236.197 20.26C236.197 19.252 236.701 18.748 237.709 18.748H239.473V16.12C239.473 15.112 239.977 14.608 240.985 14.608C241.993 14.608 242.497 15.112 242.497 16.12V18.748H246.637C247.645 18.748 248.149 19.252 248.149 20.26C248.149 21.268 247.645 21.772 246.637 21.772H242.497V30.088C242.497 31.612 242.773 32.644 243.325 33.184C243.877 33.712 244.909 33.976 246.421 33.976C246.889 33.976 247.255 34.096 247.519 34.336C247.795 34.576 247.933 34.96 247.933 35.488C247.933 36.496 247.429 37 246.421 37ZM254.517 29.116V29.98C254.517 31.528 254.799 32.584 255.363 33.148C255.927 33.7 256.989 33.976 258.549 33.976H261.501C262.725 33.976 263.631 33.862 264.219 33.634C264.807 33.406 265.197 33.004 265.389 32.428C265.521 31.972 265.701 31.624 265.929 31.384C266.169 31.144 266.529 31.024 267.009 31.024C267.513 31.024 267.897 31.156 268.161 31.42C268.425 31.684 268.509 32.068 268.413 32.572C268.149 34.06 267.441 35.17 266.289 35.902C265.137 36.634 263.541 37 261.501 37H258.549C256.161 37 254.385 36.424 253.221 35.272C252.069 34.12 251.493 32.356 251.493 29.98V25.804C251.493 23.368 252.069 21.58 253.221 20.44C254.385 19.288 256.161 18.724 258.549 18.748H261.501C263.901 18.748 265.677 19.324 266.829 20.476C267.981 21.616 268.557 23.392 268.557 25.804V27.604C268.557 28.612 268.053 29.116 267.045 29.116H254.517ZM258.549 21.772C256.989 21.748 255.927 22.018 255.363 22.582C254.799 23.146 254.517 24.22 254.517 25.804V26.092H265.533V25.804C265.533 24.232 265.251 23.17 264.687 22.618C264.135 22.054 263.073 21.772 261.501 21.772H258.549ZM276.686 44.2C275.678 44.2 275.174 43.696 275.174 42.688V20.26C275.174 19.252 275.678 18.748 276.686 18.748C277.694 18.748 278.198 19.252 278.198 20.26V20.71C278.846 20.062 279.644 19.576 280.592 19.252C281.552 18.916 282.626 18.748 283.814 18.748H285.182C287.582 18.748 289.358 19.324 290.51 20.476C291.662 21.628 292.238 23.404 292.238 25.804V29.944C292.238 32.332 291.662 34.108 290.51 35.272C289.358 36.424 287.582 37 285.182 37H278.198V42.688C278.198 43.696 277.694 44.2 276.686 44.2ZM278.198 33.976H285.182C286.754 33.976 287.816 33.694 288.368 33.13C288.932 32.566 289.214 31.504 289.214 29.944V25.804C289.214 24.232 288.932 23.17 288.368 22.618C287.816 22.054 286.754 21.772 285.182 21.772H283.814C282.314 21.772 281.018 21.952 279.926 22.312C278.834 22.672 278.258 23.242 278.198 24.022V33.976Z" fill="#F3F3F3"/>
</svg>
