<svg width="24" height="23" viewBox="0 0 24 23" fill="none" xmlns="http://www.w3.org/2000/svg">
<path fill-rule="evenodd" clip-rule="evenodd" d="M15.3451 15.8781C13.5652 17.3003 11.3084 17.987 9.03809 17.7971C6.76779 17.6072 4.65637 16.5552 3.13747 14.8571C1.61858 13.1589 0.807525 10.9436 0.870883 8.66617C0.934241 6.38869 1.8672 4.22192 3.47815 2.61087C5.08911 0.999829 7.25575 0.0668127 9.5331 0.00345122C11.8104 -0.0599103 14.0256 0.751193 15.7236 2.27017C17.4217 3.78915 18.4737 5.9007 18.6635 8.17113C18.8534 10.4416 18.1668 12.6985 16.7446 14.4785L23.5523 21.2852C23.6495 21.3758 23.7276 21.4852 23.7817 21.6066C23.8358 21.7281 23.8649 21.8593 23.8673 21.9922C23.8696 22.1252 23.8452 22.2573 23.7954 22.3806C23.7456 22.5039 23.6714 22.6159 23.5774 22.7099C23.4834 22.804 23.3714 22.8781 23.2481 22.9279C23.1247 22.9777 22.9927 23.0022 22.8597 22.9998C22.7268 22.9975 22.5956 22.9684 22.4742 22.9143C22.3527 22.8601 22.2434 22.7821 22.1527 22.6848L15.3451 15.8781ZM4.88146 13.8156C3.91239 12.8464 3.25237 11.6116 2.98482 10.2674C2.71727 8.92315 2.85419 7.52975 3.37828 6.26331C3.90237 4.99686 4.7901 3.9142 5.92929 3.15217C7.06848 2.39013 8.40799 1.98292 9.77853 1.982C11.1491 1.98108 12.4891 2.38648 13.6293 3.14698C14.7695 3.90749 15.6587 4.98894 16.1845 6.25469C16.7103 7.52043 16.8491 8.91364 16.5834 10.2583C16.3176 11.6029 15.6593 12.8385 14.6915 13.809L14.6849 13.8156L14.6783 13.8209C13.3779 15.1184 11.6157 15.8466 9.77879 15.8456C7.94188 15.8446 6.18046 15.1145 4.88146 13.8156Z" fill="#333333"/>
</svg>
