<svg width="33" height="33" viewBox="0 0 33 33" fill="none" xmlns="http://www.w3.org/2000/svg">
<rect width="33" height="33" rx="16.5" fill="#F3F3F3"/>
<path fill-rule="evenodd" clip-rule="evenodd" d="M24.4674 8.0325C24.7146 7.9285 24.985 7.89262 25.2507 7.92862C25.5164 7.96462 25.7676 8.07117 25.9781 8.23719C26.1887 8.40321 26.3509 8.62262 26.4478 8.87259C26.5448 9.12256 26.573 9.39394 26.5294 9.6585L24.2614 23.4155C24.0414 24.7425 22.5854 25.5035 21.3684 24.8425C20.3504 24.2895 18.8384 23.4375 17.4784 22.5485C16.7984 22.1035 14.7155 20.6785 14.9714 19.6645C15.1915 18.7975 18.6914 15.5395 20.6914 13.6025C21.4764 12.8415 21.1185 12.4025 20.1915 13.1025C17.8895 14.8405 14.1934 17.4835 12.9714 18.2275C11.8934 18.8835 11.3314 18.9955 10.6594 18.8835C9.43345 18.6795 8.29645 18.3635 7.36845 17.9785C6.11445 17.4585 6.17545 15.7345 7.36745 15.2325L24.4674 8.0325Z" fill="#333333"/>
</svg>
