<svg width="32" height="33" viewBox="0 0 32 33" fill="none" xmlns="http://www.w3.org/2000/svg">
<rect width="32" height="32.3814" rx="16" fill="#F3F3F3"/>
<path d="M25.5833 22.3804H23.3013C22.4383 22.3804 22.1783 21.6814 20.6313 20.1334C19.2793 18.8304 18.7083 18.6684 18.3663 18.6684C17.8933 18.6684 17.7643 18.7984 17.7643 19.4494V21.5014C17.7643 22.0564 17.5843 22.3814 16.1343 22.3814C14.7276 22.2869 13.3634 21.8595 12.1543 21.1345C10.9451 20.4095 9.92541 19.4076 9.17928 18.2114C7.40767 16.0064 6.17499 13.4184 5.57928 10.6534C5.57928 10.3114 5.70928 10.0014 6.36128 10.0014H8.64128C9.22728 10.0014 9.43828 10.2624 9.66828 10.8654C10.7753 14.1234 12.6643 16.9574 13.4313 16.9574C13.7253 16.9574 13.8533 16.8274 13.8533 16.0944V12.7384C13.7563 11.2074 12.9433 11.0784 12.9433 10.5244C12.9536 10.3782 13.0204 10.2418 13.1297 10.1441C13.2389 10.0465 13.3819 9.99527 13.5283 10.0014H17.1123C17.6023 10.0014 17.7643 10.2454 17.7643 10.8314V15.3614C17.7643 15.8504 17.9743 16.0124 18.1223 16.0124C18.4163 16.0124 18.6423 15.8504 19.1813 15.3124C20.3366 13.9033 21.2806 12.3335 21.9833 10.6524C22.0552 10.4505 22.1912 10.2777 22.3705 10.1604C22.5498 10.043 22.7625 9.98752 22.9763 10.0024H25.2573C25.9413 10.0024 26.0863 10.3444 25.9413 10.8324C25.1117 12.6908 24.0851 14.4549 22.8793 16.0944C22.6333 16.4694 22.5353 16.6644 22.8793 17.1044C23.1053 17.4464 23.9053 18.1144 24.4423 18.7494C25.2243 19.5294 25.8733 20.4314 26.3643 21.4194C26.5603 22.0554 26.2343 22.3804 25.5833 22.3804Z" fill="#333333"/>
</svg>
