<svg width="33" height="33" viewBox="0 0 33 33" fill="none" xmlns="http://www.w3.org/2000/svg">
<rect width="33" height="33" rx="16.5" fill="#F3F3F3"/>
<path d="M14.5 19.5L19.69 16.5L14.5 13.5V19.5ZM26.06 11.67C26.19 12.14 26.28 12.77 26.34 13.57C26.41 14.37 26.44 15.06 26.44 15.66L26.5 16.5C26.5 18.69 26.34 20.3 26.06 21.33C25.81 22.23 25.23 22.81 24.33 23.06C23.86 23.19 23 23.28 21.68 23.34C20.38 23.41 19.19 23.44 18.09 23.44L16.5 23.5C12.31 23.5 9.7 23.34 8.67 23.06C7.77 22.81 7.19 22.23 6.94 21.33C6.81 20.86 6.72 20.23 6.66 19.43C6.59 18.63 6.56 17.94 6.56 17.34L6.5 16.5C6.5 14.31 6.66 12.7 6.94 11.67C7.19 10.77 7.77 10.19 8.67 9.94C9.14 9.81 10 9.72 11.32 9.66C12.62 9.59 13.81 9.56 14.91 9.56L16.5 9.5C20.69 9.5 23.3 9.66 24.33 9.94C25.23 10.19 25.81 10.77 26.06 11.67Z" fill="#333333"/>
</svg>
